<?xml version="1.0" encoding="UTF-8" standalone="no"?>
<svg width="16px" height="41px" viewBox="0 0 16 41" version="1.1" xmlns="http://www.w3.org/2000/svg" xmlns:xlink="http://www.w3.org/1999/xlink">
    <!-- Generator: Sketch 3.6.1 (26313) - http://www.bohemiancoding.com/sketch -->
    <title>Combined Shape</title>
    <desc>Created with Sketch.</desc>
    <defs></defs>
    <g id="Page-1" stroke="none" stroke-width="1" fill="none" fill-rule="evenodd">
        <path d="M0,0.00829974417 L2.46247826e-15,40.9248261 L7.98871891,34.0369516 L16,41 L16,26.311055 L16,0 L0,0.00829974417 Z M3,5.00591905 C3,3.89808055 3.88743329,3 4.99961498,3 L11.000385,3 C12.1047419,3 13,3.88655484 13,5.00591905 L13,7.99408095 C13,9.10191945 12.0999742,10 11.0023284,10 L9.2975,10 C8,11.5509644 6.38708496,11.8287964 5.3328125,12 C5.60736084,11.6065063 6.50793457,10.6432495 6.5103125,10 C6.0199585,10.0042114 4.99407981,10.0017961 4.99407981,10.0017961 C3.89277994,10.0008041 3,9.11344516 3,7.99408095 L3,5.00591905 Z" id="Combined-Shape" fill="#929292"></path>
    </g>
</svg>