<svg xmlns="http://www.w3.org/2000/svg" viewBox="-100 100 1600 1200"><path fill="#D5927A" d="M650.3 459l-96.5-9.2 38 11.7"/><path fill="#CDA588" d="M785 508.8l32.7 17-14.4-17.7"/><path fill="#DEB8AA" d="M803.3 508l45 6.3L807 479"/><path fill="#685B4A" d="M806.8 479l41.6 35.3-13.3-21"/><path fill="#B3A192" d="M848.4 514.3l7.4-10-20.7-11"/><path fill="#565236" d="M721.7 550l26-6.4-5.3-29.2"/><path fill="#27412E" d="M747.7 543.6l26-20.6-31.3-8.6"/><path fill="#C59475" d="M773.7 523l44 3-32.6-17.2"/><path fill="#918269" d="M742.4 514.4l31.3 8.6-27.5-20"/><path fill="#D5B3A5" d="M746.2 503l27.5 20 11.4-14.2"/><path fill="#D0AC9C" d="M817.7 526l30.7-11.7-45-6.2"/><path fill="#AF775F" d="M703.6 470.2l9.3-27.7-31 35"/><path fill="#84634A" d="M742 463.7l-29-21.2-9.4 27.7"/><path fill="#BC9286" d="M782.3 444.4l-69.4-2 29 21.3"/><path fill="#CB856D" d="M682 477.6l31-35-62.7 16.5"/><path fill="#E7D5D0" d="M855.8 504.4l-28.3-37 7.6 26"/><path fill="#D99D89" d="M713 442.5l-159.2 7.3 96.5 9.3"/><path fill="#D1C3BD" d="M835 493.3l-7.5-25.8-12.7 5.3"/><path fill="#E0C3C1" d="M814.8 472.8l12.7-5.3-44.7-8"/><path fill="#B08B6B" d="M782.8 459.4l-.5-15-40.4 19.3"/><path fill="#D3B4A3" d="M827.5 467.5l-45.2-23 .5 15"/><path fill="#C6916F" d="M778.4 570.5l-30.7-27-26 6.4"/><path fill="#97764F" d="M793.3 769.6l35.2 25.4-20.4-52"/><path fill="#BF9177" d="M808 743l20.5 52-9.4-31"/><path fill="#B38867" d="M828.5 795l27.3-32.6L819 764"/><path fill="#D9B0A0" d="M819 764l24-20.5-35-.4"/><path fill="#C49A7F" d="M855.8 762.4l-13-19-23.7 20.6"/><path fill="#6B563D" d="M816.2 805l12.3-10-37.2-7.2"/><path fill="#5C583E" d="M840.4 858.4l-12-63.4-12.2 10"/><path fill="#665F4C" d="M852.7 869.6L828.5 795l12 63.4"/><path fill="#DEAEA2" d="M843 743.5l-24.6-49L808 743"/><path fill="#5C4A30" d="M791.3 787.8l37.2 7.2-35.2-25.4"/><path fill="#D79A7A" d="M808 743l10.4-48.5-25.3 8.2"/><path fill="#E08D77" d="M734 636.4l29.6-8.8-51.2 12.3"/><path fill="#E2A296" d="M763.6 627.6l14.8-57-66 69.3"/><path fill="#D4ADA2" d="M712.4 640l66-69.5-86-30.2"/><path fill="#D37861" d="M753.5 654.6l10-27-29.5 8.8"/><path fill="#BA734D" d="M793 702.7l25.4-8.2-28-6"/><path fill="#B55F48" d="M770 688.8l-16.5-34.2-19.5-18.2"/><path fill="#B86C4A" d="M818.4 694.5l-65-40 37 34"/><path fill="#834125" d="M790.3 688.5l-36.8-34L770 689"/><path fill="#7A5C3D" d="M552.8 559.5L515.2 578l49.5-.6"/><path fill="#3B2A1B" d="M559.5 775.4l14.5 37.8 27.7-31.8"/><path fill="#422A19" d="M594.6 759.2l-35 16.2 42 6"/><path fill="#784729" d="M601.7 781.4L574 813.2l28-6.7"/><path fill="#764E2F" d="M602 806.5l-28 6.7 30.2 20"/><path fill="#C57754" d="M596.5 619.3l-47.5 67 44-21.8"/><path fill="#9C4F30" d="M593 664.5l-44 22 11.6 18.8"/><path fill="#6D432C" d="M604.2 833l2 32.6 17 5"/><path fill="#382915" d="M560.6 705.3l-1 70 35-16"/><path fill="#915435" d="M549 686.4l-13.6 52.2 25.2-33.3"/><path fill="#77532F" d="M535.4 738.6l24 36.8 1.2-70"/><path fill="#543922" d="M574 813.2l32.2 52.4-2-32.5"/><path fill="#2A2D25" d="M584 970.8l48 18.5-35.8-30"/><path fill="#232A1B" d="M569.2 954.6l15 16.2 12-11.5"/><path fill="#292921" d="M596.2 959.3l35.7 30-13-55"/><path fill="#171211" d="M632 989.3l80.8 31.8-46.8-96"/><path fill="#6C563A" d="M623 870.6l-16.8-5 36.8 11.8"/><path fill="#1D1E19" d="M619 934.2l13 55 34-64.2"/><path fill="#44493B" d="M578.7 902.2l-9.5 52.4 27 4.7"/><path fill="#2E2C21" d="M606.2 865.6l-27.5 36.6 40.3 32"/><path fill="#483A25" d="M643 877.4l-36.8-11.8 12.8 68.6"/><path fill="#3D3A2D" d="M619 934.2l-40.3-32 17.5 57"/><path fill="#D6BDB2" d="M500.4 472.4L473 500l38-13.6"/><path fill="#947A53" d="M552.8 509l-41 15.2 42 .4"/><path fill="#4D462C" d="M491.4 513.2l20.5 11 11.3-17"/><path fill="#4C4731" d="M523.3 507.3l-11.4 17 40.8-15.3"/><path fill="#BA9187" d="M516.5 539l-15.7 27 23.8-11.6"/><path fill="#9A7858" d="M553.7 524.6l-41.8-.4 4.5 15"/><path fill="#AD9064" d="M512 524.2l-11.2 42 15.7-27"/><path fill="#D4A992" d="M553.8 449.8l-53.4 22.6 10.7 14"/><path fill="#D29985" d="M592 461.5l-38.2-11.7-42.7 36.6"/><path fill="#4B3627" d="M511 486.4l-19.6 26.8 32-6"/><path fill="#8D7F6B" d="M473 500l18.4 13.2 19.7-26.8"/><path fill="#8E6948" d="M564.7 577.4l10.3 19 23.3-48.4"/><path fill="#AB8A6F" d="M598.3 548L575 596.3l43-28"/><path fill="#CD8064" d="M618 568.2l-43 28 21.5 23"/><path fill="#D48771" d="M575 596.3L547.2 657l49.3-37.7"/><path fill="#D4856D" d="M547.2 657l1.8 29.4 47.5-67"/><path fill="#B39067" d="M515.2 578l14.4 17 35-17.6"/><path fill="#5B4A37" d="M524.6 554.4l-9.4 23.5 37.6-18.5"/><path fill="#696752" d="M822.7 848.5l30 21-12.3-11"/><path fill="#9E825A" d="M529.6 595l45.4 1.3-10.3-19"/><path fill="#B78F65" d="M775.7 1080.6l32.5-57.8-39.4 13"/><path fill="#DB8954" d="M1097.7 1115.8l28.3-39.4-39 11.2"/><path fill="#F18851" d="M868 1123.6l39 14.2 13-19"/><path fill="#AF947B" d="M875 465.3l10.6-45.8-18.3-5"/><path fill="#584C3F" d="M935.8 1133l9.6-8-25.4-6"/><path fill="#BB713C" d="M943.4 1107l26.8 11.8 15-18"/><path fill="#936E4B" d="M800.8 1129.2l-14 26.6 52.6-22"/><path fill="#627F8C" d="M920 1119l25.4 6-2-18"/><path fill="#AB5723" d="M849.8 1147.6l57.2-9.8-39-14.2"/><path fill="#39262E" d="M806.4 1153.5l43.4-6-10.4-13.6"/><path fill="#D88152" d="M1070 1168l49.5-2-30.3-16.4"/><path fill="#3B332E" d="M839.4 1134l10.4 13.6 18.3-24"/><path fill="#839096" d="M945.4 1125l24.8-6.2-26.8-12"/><path fill="#446A77" d="M1022.5 1170.2l31 7.6.5-21"/><path fill="#7E7D6D" d="M1053.4 1177.8l16.5-9.7-16-11.3"/><path fill="#7794A7" d="M1037.6 1124.4l-15 45.8 31.4-13.5"/><path fill="#5C6866" d="M1054 1156.7l16 11.4-15.2-28"/><path fill="#929291" d="M970.2 1118.8l25.3 7.6L985 1101"/><path fill="#D47B55" d="M1054.8 1140l15 28 19.4-18.4"/><path fill="#544D41" d="M1000.6 1155.3l22 15 15-46"/><path fill="#DF7E37" d="M985 1101l10.5 25.4 42-2"/><path fill="#C36329" d="M995.5 1126.4l19.4 13 22.6-15"/><path fill="#B06234" d="M1015 1139.5l-14.4 15.8 37-31"/><path fill="#150D04" d="M786.7 1155.8l19.7-2.3 33-19.6"/><path fill="#BA8963" d="M736.2 1108.8l-28-17.7-6.2 32.6"/><path fill="#B6814D" d="M775.7 1080.6L708 1091l28.2 17.8"/><path fill="#A37545" d="M768.8 1035.8L708 1091l67.7-10.4"/><path fill="#A8794A" d="M671.6 1110l-11.6 24.4 42-10.8"/><path fill="#BC885D" d="M781 1144.7l5.7 11 14-26.5"/><path fill="#746032" d="M743.2 1031.7l-14 31.4 39.6-27.2"/><path fill="#796941" d="M792 1008l-48.8 23.7 25.6 4"/><path fill="#694524" d="M729.2 1063l-21 28 60.6-55.2"/><path fill="#84683E" d="M808.2 1022.8L792 1008l-23.2 27.8"/><path fill="#484531" d="M660 1134.4l11.7 14.7 30.3-25.4"/><path fill="#BE8F62" d="M708 1091l-36.4 19 30.4 13.6"/><path fill="#906543" d="M755.6 1148.4l-6.3 20.3 31.7-24"/><path fill="#78725E" d="M711.3 1183l38-14.3 6.3-20.3"/><path fill="#2F2B1B" d="M671.7 1149l39.6 34 44.3-34.6"/><path fill="#2F3A36" d="M634.3 1132.8l37.4 16.3-11.7-14.6"/><path fill="#B77242" d="M749.3 1168.7l37.4-13-5.7-11"/><path fill="#6E5738" d="M654 1161.7l17.7-12.6-37.4-16.2"/><path fill="#E97438" d="M654 1161.7l16.5 15.2 1.2-28"/><path fill="#AE5820" d="M671.7 1149l15.8 34h23.8"/><path fill="#EE8B61" d="M670.5 1177l17 6-15.8-34"/><path fill="#D1A27F" d="M839.6 1056.5l36.7-43L864 989"/><path fill="#433831" d="M956.3 979.4l-40 19L935 1018"/><path fill="#AF8D7B" d="M951.2 1031.6l5-52.2-21 38.7"/><path fill="#24262D" d="M935 1018l-18.7-19.6-32.5 41.4"/><path fill="#3D382B" d="M848.8 909.3l4-39.7-30-21"/><path fill="#936335" d="M883.8 1039.8l-7.5-26.3-36.7 43"/><path fill="#875728" d="M916.3 998.4l-40 15 7.5 26.4"/><path fill="#F7B290" d="M1004.2 1023.5l-53 8 51.4 27.6"/><path fill="#DD9F82" d="M1002.6 1059l-51.4-27.4 10.7 32.7"/><path fill="#838E99" d="M962 1064.3l-10.8-32.7-15.2 12.7"/><path fill="#E8AD88" d="M1119.5 1166l-3-12.6-27.3-3.8"/><path fill="#CCA890" d="M895.4 952.2l-53.8 25.3L864 989"/><path fill="#4B4637" d="M841.6 977.5l-6.4-21-31.4 11.2"/><path fill="#201E13" d="M803.8 967.7l31.4-11.2-26.3-25.8"/><path fill="#D5B0A0" d="M876.3 1013.5l19-61.3L864 989"/><path fill="#2F2D22" d="M809 930.7l39.8-21.4-26-60.8"/><path fill="#28251D" d="M835.2 956.5l13.6-47.2-40 21.4"/><path fill="#443622" d="M792 1008l49.6-30.5-37.8-9.8"/><path fill="#BF998D" d="M1020.2 1042.5l-16-19-1.6 35.6"/><path fill="#9C8357" d="M808.2 1022.8l33.4-45.3L792 1008"/><path fill="#C59F82" d="M864 989l-22.4-11.5-6 20.2"/><path fill="#B09267" d="M835.6 997.7l6-20.2-33.4 45.3"/><path fill="#4D5E72" d="M936 1044.3l15.2-12.7-16-13.5"/><path fill="#EFA378" d="M1194.7 1127.6l-31.8-24-30.7 26.8"/><path fill="#F1BFAB" d="M1194.7 1127.6l-14.6-33-17 9"/><path fill="#6C6F59" d="M1161.8 1147.4l33-19.8-62.5 2.8"/><path fill="#A68766" d="M1163 1103.7l-17.6-20-10.4 20"/><path fill="#CE9B84" d="M1180 1094.6l-34.6-10.8 17.5 20"/><path fill="#A86D40" d="M1116.5 1153.4l45.3-6-29.5-17"/><path fill="#BE6B3A" d="M1087 1138l29.5 15.4-2.8-20.6"/><path fill="#868D84" d="M1145.4 1083.8l-19.4-7.4 9 27.4"/><path fill="#EB8951" d="M1089.2 1149.6l27.3 3.8-29.6-15.5"/><path fill="#6B8076" d="M1013.6 1066.7l6.6-24.2-17.6 16.6"/><path fill="#C68450" d="M1113.7 1132.8l2.8 20.6 15.8-23"/><path fill="#9F999E" d="M1056 1072.8l-7.3-17.4-35 11.3"/><path fill="#E3A787" d="M1087 1087.6l-11-34.7-20 19.8"/><path fill="#C7A794" d="M1076 1053l-27.3 2.4 7.2 17.4"/><path fill="#81644C" d="M1135 1103.8l-9-27.4-28.3 39.4"/><path fill="#698796" d="M1048.7 1055.4l-28.5-13-6.6 24.3"/><path fill="#A76E3C" d="M1097.7 1115.8l-10.6-28.2-2.6 9.7"/><path fill="#B06939" d="M1065.2 1087.8l22-.2-31.3-14.8"/><path fill="#232014" d="M666 925l46.8 96-13-93.2"/><path fill="#B26B3A" d="M1084.4 1097.3l2.7-9.7-21.8.2"/><path fill="#69563A" d="M500.8 566l14.4 12 9.4-23.6"/><path fill="#BA977F" d="M1204.5 1092.4l-1-27-18.7 8.7"/><path fill="#769094" d="M1203.4 1065.5l-36.4-6 17.8 14.6"/><path fill="#7F7B76" d="M1184.8 1074l-17.8-14.6 13 35.2"/><path fill="#918A81" d="M1180 1094.6l-13-35.2-21.6 24.4"/><path fill="#5D7884" d="M1027.2 1024l-14.3-32.3-8.8 31.8"/><path fill="#6B8787" d="M1225 1143l12.7-2.6-19.2-14"/><path fill="#A3B8B5" d="M1194.7 1127.6l30.2 15.4-6.8-16.6"/><path fill="#918573" d="M1145.4 1083.8l21.6-24.4-41 17"/><path fill="#AF8767" d="M1218.2 1126.4v-.4l-38-31.4 14.5 33"/><path fill="#F8A278" d="M1204.5 1092.4l-24.4 2.2 38 31.4"/><path fill="#6B8E97" d="M1048.7 1055.4l11-20-39.5 7"/><path fill="#AF9A8E" d="M1020.2 1042.5l39.6-7.2-32.6-11.3"/><path fill="#B29D8B" d="M1059.8 1035.3l-12.7-27.6-19.8 16.3"/><path fill="#828584" d="M1049 987.7l-36 4 14.2 32.3"/><path fill="#777670" d="M1047 1007.7l2-20-21.8 36.3"/><path fill="#E4B091" d="M1087 1087.6l12-63.7-23 29"/><path fill="#DDB2A0" d="M1076 1053l-16.2-17.7-11 20"/><path fill="#F9AC89" d="M1126 1076.4l-27-52.5-12 63.6"/><path fill="#FBB799" d="M1126 1076.4l41-17-68-35.5"/><path fill="#F0C4B1" d="M1099 1024l-39.2 11.3 16 17.6"/><path fill="#F2AB8E" d="M1184.8 1074l-4.7 20.6 24.5-2.2"/><path fill="#B0B2B2" d="M1037.5 1188.7l39.4-5.2-23.6-5.7"/><path fill="#161614" d="M700 927.8l12.8 93.3 26.7-31.5"/><path fill="#C89165" d="M1070 1168l41.7 8.8 7.8-10.8"/><path fill="#AFB8BA" d="M1022.5 1170.2l15 18.5 16-11"/><path fill="#C58452" d="M1077 1183.5l34.7-6.7-41.8-8.7"/><path fill="#63796B" d="M1111.7 1176.8l32.3-1.4-24.5-9.4"/><path fill="#98A0A2" d="M1007 1182.8l30.5 6-15-18.6"/><path fill="#D98F61" d="M975 1160l32 22.8-6.4-27.5"/><path fill="#C88650" d="M981 1140l-6 20 25.6-4.7"/><path fill="#574C3B" d="M1000.6 1155.3l6.4 27.5 15.5-12.6"/><path fill="#909683" d="M1119.5 1166l24.5 9.4-27.5-22"/><path fill="#D88E51" d="M1217.3 1173l7.6-30-19.2 19.7"/><path fill="#57574E" d="M1191.5 1147l-15.8 21 30-5.3"/><path fill="#CA8759" d="M1175.7 1168l41.6 5-11.5-10.3"/><path fill="#9A7B58" d="M1191.5 1147l33.4-4-30.3-15.4"/><path fill="#917656" d="M1205.8 1162.7l19-19.7-33.3 4"/><path fill="#8B6957" d="M1116.5 1153.4l27.5 22 17.8-28"/><path fill="#776751" d="M1161.8 1147.4l-17.8 28 16.5-12.3"/><path fill="#6D7069" d="M1160.5 1163l15.2 5 15.8-21"/><path fill="#695746" d="M1144 1175.4l31.7-7.3-15.2-5"/><path fill="#424238" d="M871.2 913.8l18-36-40.4 31.5"/><path fill="#E1AEA0" d="M889.2 688.8l-80.2-45 9.4 50.7"/><path fill="#DF998A" d="M818.4 694.5L809 644l-55.5 10.6"/><path fill="#DFAE97" d="M843 743.5l46.2-54.7-70.8 5.7"/><path fill="#E2917F" d="M753.5 654.6L809 644l-45.4-16.4"/><path fill="#DAAFA0" d="M809 644l-.4-104.2-30.2 30.7"/><path fill="#EBB1A9" d="M763.6 627.6L809 644l-30.6-73.5"/><path fill="#A07A54" d="M855.3 784l43.8-18.8-43.2-2.8"/><path fill="#B98F6E" d="M899 765.2l-5.8-38-37.4 35.2"/><path fill="#DBB8A8" d="M855.8 762.4l33.4-73.6-46.3 54.7"/><path fill="#D6AC9C" d="M893.2 727l-4-38.2-33.4 73.6"/><path fill="#CCB683" stroke="#929D79" stroke-miterlimit="10" d="M874.6 465.3h.4l-.5-1z"/><path fill="#D2B3A6" d="M778.4 570.5l30.2-30.7-61 3.8"/><path fill="#E9D0CA" d="M827.5 467.5l28.3 37 19-38.6-.2-.7"/><path fill="#CCB683" stroke="#929D79" stroke-miterlimit="10" d="M874.7 466l.3-.7h-.4z"/><path fill="#A78D7E" d="M848.4 514.3l35 12-27.6-22"/><path fill="#A68059" d="M828.5 795l26.8-11 .5-21.6"/><path fill="#E8CECF" d="M883.5 526.2l-8.8-60.3-19 38.4"/><path fill="#D0947C" d="M808.6 539.8l75-13.6-35.2-12"/><path fill="#9F774E" d="M773.7 523l35 16.8 9-14"/><path fill="#6A5A3F" d="M747.7 543.6l61-3.8-35-16.8"/><path fill="#C8A28C" d="M817.7 526l-9 13.8 39.7-25.5"/><path fill="#524C34" d="M841.6 977.5l54-54.5-60.4 33.5"/><path fill="#9B723B" d="M916.3 998.4l17-49.6-57 64.7"/><path fill="#63522F" d="M935.2 975.4l-2-26.6-17 49.6"/><path fill="#3B280F" d="M955.6 943.7l-22.4 5 2 26.7"/><path fill="#DEBBAB" d="M876.3 1013.5l57-64.7-38 3.4"/><path fill="#C1A089" d="M918 919.2l-22.3 3.8-.3 29.2"/><path fill="#DFBAA9" d="M933.2 948.8L918 919.2l-22.6 33"/><path fill="#E39976" d="M1004.2 1023.5l-22-46.2-31 54.3"/><path fill="#514E40" d="M956.3 979.4l-.7-35.7-20.4 31.7"/><path fill="#AC9990" d="M951.2 1031.6l31-54.3-26 2"/><path fill="#57778C" d="M982.2 977.3l-26.6-33.6.7 35.7"/><path fill="#F1884F" d="M1015 1139.5l-34 .6 19.6 15.3"/><path fill="#312C1F" d="M848.8 909.3l40.5-31.6-36.6-8"/><path fill="#413C2E" d="M889.3 877.7L878 840l-25.3 29.6"/><path fill="#5D5A46" d="M878 840l-21-34-4.3 63.6"/><path fill="#4F432E" d="M852.7 869.6L857 806l-28.5-11"/><path fill="#634C31" d="M857 806l-1.7-22-26.8 11"/><path fill="#D5A487" d="M1013 991.7L982 977.3l22 46.2"/><path fill="#BB9E83" d="M895.4 952.2l.3-29.2-54 54.5"/><path fill="#37372C" d="M835.2 956.5l60.5-33.5-24.5-9.2"/><path fill="#221F16" d="M895.7 923l-6.4-45.3-18 36"/><path fill="#CB834E" d="M1053.4 1177.8l23.5 5.7-7-15.4"/><path fill="#F98544" d="M545 1139.8l-3.8 23.4 33.2-12.8"/><path fill="#311809" d="M541.2 1163.2l40.8 9.7-7.6-22.6"/><path fill="#E38756" d="M574.4 1150.4l8.4-10-21.6-17.7"/><path fill="#E2793C" d="M995.5 1126.4L981 1140l34-.5"/><path fill="#BF6F40" d="M582 1173l.8-32.6-8.4 10"/><path fill="#7D847C" d="M533 1128l-34.6-1.2 19 15"/><path fill="#6C2F0A" d="M534.8 1174.8l6.4-11.6-23.7-21.5"/><path fill="#2D1C14" d="M498.4 1126.8l17.5 43.7 1.5-28.8"/><path fill="#4D473A" d="M582.8 1140.4l7-32-28.6 14.3"/><path fill="#372415" d="M517.5 1141.7l-1.6 28.8 18.8 4.3"/><path fill="#203844" d="M525.2 1105.5l-26.8 21.3 34.6 1"/><path fill="#151417" d="M420.8 1156.5l77.6-29.7-17-11.7"/><path fill="#374E53" d="M496 1099.7l2.4 27 26.8-21.2"/><path fill="#7C6755" d="M481.5 1115l17 11.8-2.4-27"/><path fill="#321100" d="M420.8 1156.5l57.7 45.2 20-75"/><path fill="#5F2E14" d="M516 1170.5l-17.6-43.7-20 75 22-25.5"/><path fill="#C36937" d="M561.2 1122.7l-19.8-37.3-1.2 22.8"/><path fill="#383C2E" d="M541.4 1085.4l-16.2 20 15 2.8"/><path fill="#AD7F63" d="M533 1128l-15.5 13.7 27.4-2"/><path fill="#B26B3A" d="M589.7 1108.4l-48.3-23 19.8 37.3"/><path fill="#323D48" d="M540.2 1108.2l-15-2.7 7.8 22.4"/><path fill="#9C6F3A" d="M671.6 1110l-10-43.5-35 9.8"/><path fill="#4F3A15" d="M685 1041.5l-23.5 25 67.7-3.4"/><path fill="#A47842" d="M708 1091l-46.5-24.5 10 43.5"/><path fill="#6D4C24" d="M729.2 1063l-67.7 3.5L708 1091"/><path fill="#3E3A2E" d="M500.4 1176.3l-22 25.4 22-18.4"/><path fill="#9B6D3A" d="M620.2 1042.7l-32.6-8 39 41.6"/><path fill="#7B582C" d="M661.5 1066.5l-41.3-23.8 6.5 33.6"/><path fill="#453219" d="M712.8 1021l-27.8 20.5 44.2 21.6"/><path fill="#D78A55" d="M561.2 1122.7L533 1128l12 11.8"/><path fill="#3A3326" d="M757.2 1007.7l-44.4 13.4 30.4 10.7"/><path fill="#583F21" d="M743.2 1031.7l-30.4-10.6 16.4 42"/><path fill="#1C1915" d="M739.5 989.5l-26.7 31.6 44.4-13.3"/><path fill="#A05E24" d="M534.8 1174.8l-19-4.3 20.5 22.6"/><path fill="#6A4B28" d="M540.2 1108.2L533 1128l28.2-5.3"/><path fill="#161C25" d="M634.3 1132.8l-44.6-24.4-7 32"/><path fill="#F5945C" d="M574.4 1150.4l-13.2-27.7-16.3 17"/><path fill="#774C22" d="M597 1096l-7.3 12.4 44.6 24.4"/><path fill="#B47D4B" d="M587.6 1034.8l9.4 61 29.7-19.5"/><path fill="#B3875B" d="M671.6 1110l-74.6-14 63 38.4"/><path fill="#BC8756" d="M626.7 1076.3L597 1096l74.6 14"/><path fill="#533E2D" d="M660 1134.4l-63-38.5 37.3 36.8"/><path fill="#E07847" d="M517.5 1141.7l23.7 21.5 3.7-23.4"/><path fill="#1B2731" d="M776.8 1184.2l65-12.8-35.4-18"/><path fill="#3B555C" d="M806.4 1153.5l35.5 18 7.8-24"/><path fill="#A95F41" d="M849.8 1147.6l-8 23.8 20-12"/><path fill="#A75C28" d="M842 1171.4l14.3 4.8 5.4-16.8"/><path fill="#481602" d="M786.7 1155.8l-10 28.4 29.7-30.7"/><path fill="#514D4E" d="M749.3 1168.7l-18.7 22 27.3-14"/><path fill="#4C3E21" d="M730.6 1190.7l17.7 5.4 9.6-19.2"/><path fill="#746963" d="M711.3 1183l19.3 7.7 18.7-22"/><path fill="#814B2E" d="M748.3 1196l28.5-11.8-19-7.4"/><path fill="#492605" d="M758 1176.8l18.8 7.4 10-28.4"/><path fill="#B06A31" d="M856.3 1176.2l37-1.2-31.6-15.6"/><path fill="#AF8D74" d="M944.4 1149.3l23.6-12.5-22.6-11.7"/><path fill="#CD8B6F" d="M945.4 1125L968 1137l2.2-18"/><path fill="#B39064" d="M968 1136.8l13 3.3 14.5-13.6"/><path fill="#967552" d="M970.2 1118.8l-2.2 18 27.5-10.4"/><path fill="#BF7E4E" d="M861.7 1159.4l31.7 15.6 7.5-19.2"/><path fill="#AEA693" d="M935.8 1133l8.6 16.3 1-24.2"/><path fill="#8D8065" d="M893.4 1175l32.8-11.6-25.3-7.6"/><path fill="#878D92" d="M926.2 1163.4l18.2-14-8.6-16.5"/><path fill="#B1895D" d="M901 1155.8l25.2 7.6-19.2-25.6"/><path fill="#5B3F4B" d="M907 1137.8l19.2 25.6 9.6-30.5"/><path fill="#491805" d="M541.2 1163.2l17.5 12.5 23.3-2.8"/><path fill="#853C0F" d="M534.8 1174.8l24 1L541 1163"/><path fill="#BE5F2C" d="M536.3 1193l22.4-17.3-24-1"/><path fill="#090803" d="M558.7 1175.7l26.5 15.8-3.2-18.6"/><path fill="#9D5921" d="M540.3 1204.2l18.4-28.5-22.4 17.4"/><path fill="#2C2006" d="M585.2 1191.5l29.2-14.5-32.4-4"/><path fill="#8A5933" d="M500.5 1183.3l3-2.5-3-4.5"/><path fill="#9E8353" d="M519 1203.6l21.3.6-4-11"/><path fill="#D78A5C" d="M503.5 1180.8l15.6 22.8-3-33"/><path fill="#89522E" d="M500.4 1176.3l3 4.5 12.5-10.3"/><path fill="#655423" d="M516 1170.5l3 33 17.3-10.4"/><path fill="#5B2C0A" d="M614.4 1177l56 20.8-22.7-15"/><path fill="#764718" d="M647.7 1182.7l22.8 15V1177"/><path fill="#71491E" d="M687.5 1183l-17 14.8 30.7-1.5"/><path fill="#B2662A" d="M670.5 1177v20.8l17-14.8"/><path fill="#8D5F3D" d="M687.5 1183l13.7 13.3 10-13.4"/><path fill="#765439" d="M582.8 1140.4l31.6 36.6 9-24.7"/><path fill="#F37A38" d="M623.5 1152.3l-9 24.7 39.4-15.3"/><path fill="#915731" d="M582 1173l32.4 4-31.6-36.6"/><path fill="#F69C75" d="M614.4 1177l33.3 5.7 6.2-21"/><path fill="#878076" d="M701.2 1196.3l29.4-5.6-19.3-7.8"/><path fill="#9C7F68" d="M907 1137.8l28.8-5-15.8-14"/><path fill="#513923" d="M697 750.7l48.7-9.2-32-3.4"/><path fill="#55331E" d="M745.7 741.5l10-41-42 37.6"/><path fill="#3F2E1B" d="M704 705.5l51.7-5-51.8-25.2"/><path fill="#A5715F" d="M755.7 700.6L718 665.3l-14 10"/><path fill="#4B311D" d="M713.6 738l42-37.4-51.7 5"/><path fill="#604224" d="M681.5 734l15.6 16.7 16.6-12.6"/><path fill="#292114" d="M704 675.3l-44 27.3 44 3"/><path fill="#6F4F32" d="M661.2 892.8l33.3-18.3-19.5-19"/><path fill="#4A3927" d="M655.4 669.2l4.7 33.4 44-27.3"/><path fill="#4D2914" d="M704 705.5l-44-3 53.6 35.6"/><path fill="#261E1A" d="M621.3 659.2l-7 33 45.8 10.4"/><path fill="#382619" d="M655.4 669.2l-34-10 38.7 43.4"/><path fill="#A24B35" d="M741.4 759l4.3-17.5-48.6 9.2"/><path fill="#6D3427" d="M660 702.6l-32 33 53.5-1.7"/><path fill="#A16E53" d="M704 675.3l14-10-22-2.7"/><path fill="#AE6239" d="M645.6 626.2l-24.3 33 34 10"/><path fill="#1D1A15" d="M614.4 692.3l13.7 43.4 32-33"/><path fill="#8C4A2E" d="M718 665.3l-49-6.5 27 3.8"/><path fill="#CA6E53" d="M669 658.8l-23.4-32.6 9.8 43"/><path fill="#8C6B55" d="M696 662.6l-27-3.8 35 16.5"/><path fill="#B28469" d="M704 675.3l-35-16.5-13.6 10.4"/><path fill="#BB765D" d="M604.6 642.3l16.7 17 24.3-33"/><path fill="#56472F" d="M692 495.2l-15.6.3-3 15.6"/><path fill="#DAA496" d="M676.4 495.5l-26.2 4.5 8.4 10.8"/><path fill="#4E4234" d="M673.4 511l3-15.5-17.8 15.3"/><path fill="#8F8A78" d="M670.5 526.5l3-15.4-15-.2"/><path fill="#A48562" d="M738.5 485.5l-46.5 9.7 14.7 20.3"/><path fill="#BA9375" d="M706.7 515.5L692 495.2l-18.6 16"/><path fill="#D07358" d="M617.8 782.7l47.3-9.5-23.6-21"/><path fill="#332315" d="M562.7 501.7l46.4 8-27.3-32"/><path fill="#885436" d="M581.7 477.7l27.4 32 23.7-31"/><path fill="#C58162" d="M632.7 478.6l-23.6 31 41.2-9.6"/><path fill="#DA9F95" d="M645 518.5l-23.3 78.2 24 29.5"/><path fill="#4C3B20" d="M658.6 510.8l-13.7 7.7 25.5 8"/><path fill="#ECB3B4" d="M680 560.2l-35-41.7.6 107.7"/><path fill="#AD6945" d="M670.5 526.5l-25.6-8 35 41.7"/><path fill="#D8A9A4" d="M621.7 596.7l-17 45.6 41-16"/><path fill="#4C2110" d="M628 735.7l13.4 16.5 40-18.3"/><path fill="#CD8E76" d="M650.2 500l-41 9.6 17 5"/><path fill="#7B5A44" d="M626.2 514.7l18.7 3.8 13.6-7.7"/><path fill="#33382C" d="M609 509.6l7 39 10.2-34"/><path fill="#DBA99E" d="M658.6 510.8l-8.4-10.8-24 14.7"/><path fill="#8B4B34" d="M616 548.7l29-30.2-18.8-3.8"/><path fill="#652F1C" d="M660 702.6l21.5 31.3 32 4"/><path fill="#EAA59C" d="M741.4 759L665 773.2l65.7 6.3"/><path fill="#696C59" d="M775.8 927L761.4 957l22 8.7"/><path fill="#464026" d="M787.4 890.6l-8.6-54.7-12 33"/><path fill="#CD8C6D" d="M739.4 806l31.3-9-40-17.5"/><path fill="#A16641" d="M665 773.2l-9.6 24 23 5.5"/><path fill="#806246" d="M766.7 869l12-33-31 18.7"/><path fill="#49381E" d="M655.4 797.3L625 835.6l53.4-33"/><path fill="#CD846B" d="M742.6 838l28-41-31.2 9"/><path fill="#8B6249" d="M778.8 836l-8-39-23 57.7"/><path fill="#CE907A" d="M747.8 854.7l23-57.6-28.2 41"/><path fill="#CA8667" d="M730.7 779.5l-65.6-6.3 13.4 29.5"/><path fill="#40331B" d="M625 835.6l50 19.8 3.4-52.7"/><path fill="#322012" d="M708.2 896.8l30.4 36.5-1.4-49"/><path fill="#6C4F31" d="M694.5 874.5l13.7 22.3 29-12.4"/><path fill="#3D3B2C" d="M737.2 884.4l1.4 49 37.2-6.3"/><path fill="#2D2C24" d="M738.6 933.3l22.8 23.5 14.4-29.7"/><path fill="#8B623C" d="M719.4 867.4l-25 7 42.8 10"/><path fill="#47341C" d="M678.4 802.7l-3.4 52.7 20.6-35.3"/><path fill="#8B5B40" d="M703.5 849.8l-9 24.7 25-7"/><path fill="#5A442C" d="M695.6 820L675 855.5l28.5-5.6"/><path fill="#73452F" d="M675 855.4l19.5 19 9-24.6"/><path fill="#777764" d="M787.4 890.6L766.7 869l11.3 31.3"/><path fill="#9C6B3F" d="M730.7 779.5l-52.3 23.2 42 7"/><path fill="#705231" d="M678.4 802.7l17.2 17.4 24.7-10.3"/><path fill="#554E3D" d="M802 891.8l-23.2-56 8.6 54.8"/><path fill="#A36B46" d="M720.3 809.7l-16.8 40 39-11.6"/><path fill="#9F6243" d="M703.5 849.8l16 17.6 23-29.3"/><path fill="#C3745F" d="M641.4 752.2l23.7 21 32-22.5"/><path fill="#B37959" d="M742.6 838l-23.2 29.4 28.4-12.7"/><path fill="#DA6F5C" d="M697 750.7l-32 22.5 76.4-14.2"/><path fill="#B07758" d="M742.6 838l-3.2-32-19 3.7"/><path fill="#BE855B" d="M739.4 806l-8.7-26.5-10.4 30.2"/><path fill="#7C5329" d="M695.6 820l8 29.8 16.7-40"/><path fill="#44331A" d="M737.2 884.4l38.6 42.7-18.3-45"/><path fill="#656551" d="M778 900.3l-2.2 26.8 11.6-36.4"/><path fill="#6D6B4D" d="M757.5 882l18.3 45 2.2-26.7"/><path fill="#3B3C2A" d="M775.8 927l26-35.2-14.4-1.2"/><path fill="#876547" d="M747.8 854.7l-10.6 29.7 29.5-15.3"/><path fill="#A47150" d="M719.4 867.4l17.8 17 10.6-29.7"/><path fill="#91663A" d="M681.5 734l-40 18.2 55.6-1.5"/><path fill="#634A34" d="M766.7 869l-29.5 15.4 20.3-2.5"/><path fill="#635839" d="M778 900.3L766.7 869l-9.2 13"/><path fill="#DA9D85" d="M770.7 797l-29.3-38-10.7 20.5"/><path fill="#374534" d="M648.8 236.4l-10.5 13 22 11.6"/><path fill="#92775A" d="M954.3 879.6l-11 16.2 22.3 6.5"/><path fill="#A1735B" d="M405 1225.8l19.5 8.3 23-26.3"/><path fill="#A48275" d="M965.6 902.3l-22.2-6.5 16 32.2"/><path fill="#4A4F36" d="M434.3 460.6l5 41.2 16.4-90.3"/><path fill="#D8C6C1" d="M458.8 592.7l7.2 60.7-4.8-78.6"/><path fill="#B2AE9B" d="M444 345L434 364l36.5-32"/><path fill="#775835" d="M457.6 707.6l14.7 59.7-2-77.3"/><path fill="#EB9D72" d="M438.5 1097.2l-15.8 27 40.5-21.5"/><path fill="#E9A89C" d="M961 623.2l-44.8-4.3 28.4 30.6"/><path fill="#4B4838" d="M898.5 868.3L878 840l11.3 37.7"/><path fill="#CCB683" stroke="#929D79" stroke-miterlimit="10" d="M1238 1140.4h-.3l.2.2z"/><path fill="#CBA187" d="M914.2 661.5l-25 27.3 4 38.3"/><path fill="#C1794B" d="M963.6 1176.3l43.4 6.5-32-22.8"/><path fill="#B99E94" d="M312.2 1180l-24 28 29.4-14.6"/><path fill="#223443" d="M918 1176.3l8.2-13-32.8 11.7"/><path fill="#948E6B" d="M774.3 266.7L748 263l14 21"/><path fill="#6F7665" d="M618 252.4L582.3 265l42.3 12.3"/><path fill="#656F59" d="M589.2 243.5l-7 21.4 36-12.6"/><path fill="#72715B" d="M582.2 265l25.4 29.5 17-17.2"/><path fill="#5A5A49" d="M541.8 894.6l9 35.7-.5-52"/><path fill="#ABA18A" d="M578 184.3l37.8 11 12-7"/><path fill="#B9B7A6" d="M479 257.3l15 15.3 13-44.7"/><path fill="#C1A197" d="M432 621.5l10.8 31.4-8-59"/><path fill="#9D9583" d="M615.8 195.3l29 22-17-29"/><path fill="#F39078" d="M987 609.3l-15-42.6 11 83.7"/><path fill="#DAD3C3" d="M892.2 338.2l-13.5-18.5 2.8 21.7"/><path fill="#E7A088" d="M972 566.7l-13-8.5 24 92.2"/><path fill="#372A1C" d="M421 1206l-.2-49.5-24 29.8"/><path fill="#948878" d="M1027.2 1024l-23-.5 16 19"/><path fill="#434134" d="M935.2 975.4l-19 23 40-19"/><path fill="#3C4134" d="M871.2 913.8l-22.4-4.5-13.6 47.2"/><path fill="#BC987D" d="M1160.5 1163l34.2-35.4-33 19.8"/><path fill="#DF9F7B" d="M901 1155.8l6-18-45.3 21.6"/><path fill="#C38B6A" d="M1191.5 1147l3.2-19.4-34.2 35.5"/><path fill="#E4B4AA" d="M616.6 312L553.8 450l159-7.3"/><path fill="#E0BEB5" d="M838.3 401.8l-56 42.6 45.2 23"/><path fill="#EAC7BE" d="M741.5 308.6l-28.6 134 69.3 1.8"/><path fill="#E9CCC5" d="M874.6 465.3v-1L838.2 402l-10.8 65.7"/><path fill="#DC7B33" d="M647.7 1182.7l22.8-5.8-16.6-15.3"/><path fill="#725F41" d="M564.7 577.4l33.6-29.4-45.5 11.5"/><path fill="#A07F6A" d="M835 493.3L815 472.8l-8 6.2"/><path fill="#2D2619" d="M619 934.2l47-9.2-23-47.6"/><path fill="#B0755B" d="M790.3 688.5l-20.4.3 23 14"/><path fill="#585841" d="M840.4 858.4L816.2 805l6.5 43.5"/><path fill="#5D3514" d="M758 1176.8l28.7-21-37.4 13"/><path fill="#BA754A" d="M861.7 1159.4l45.3-21.6-57.2 9.8"/><path fill="#DFB1A2" d="M555.6 343.3l-1.8 106.5L616.6 312"/><path fill="#182229" d="M582.8 1140.4l40.7 12 10.8-19.6"/><path fill="#6F4424" d="M623.5 1152.3l30.4 9.4-19.7-29"/><path fill="#B36F37" d="M464 1122.7l-43.2 33.8 60.7-41.4"/><path fill="#896B4C" d="M363.2 1162.6l5 32.5 28.5-8.7"/><path fill="#6E6E60" d="M343 1180.3l25.2 14.8-5-32.4"/><path fill="#4B4329" d="M487.6 522.3l24.3 2-20.6-11"/><path fill="#F48046" d="M359 1214.5l9.2-19.4-25-14.7"/><path fill="#252E34" d="M396.7 1186.3l-18 26 42.3-6.2"/><path fill="#2E2C20" d="M792 1008l11.8-40.3-23.6 16"/><path fill="#CD8860" d="M312.2 1180l5.4 13.4 19.7-20.6"/><path fill="#707475" d="M343 1180.3l20.2-17.7-26 10.2"/><path fill="#D3A07C" d="M317.6 1193.4l25.5-13-5.7-7.6"/><path fill="#F6884F" d="M317.6 1193.4l41.4 21-16-34"/><path fill="#403B3D" d="M368.2 1195l10.4 17.3 18-26"/><path fill="#766B5A" d="M478 1096.7l3.5 18.4 14.6-15.3"/><path fill="#442C27" d="M523 1074.6l2.2 31 16.2-20.2"/><path fill="#B98259" d="M512.3 753.5l31 38.3-8-53.2"/><path fill="#957145" d="M543.2 791.8l16.3-16.4-24-36.8"/><path fill="#BE541A" d="M447 1204l31.5-2.3-33.2-10.6"/><path fill="#C46227" d="M445.3 1191l-24.3 15 26-2"/><path fill="#C9834F" d="M314.4 1160.7l-2.2 19.2 25-7.2"/><path fill="#401A00" d="M421 1206l24.3-15 33.2 10.7-57.7-45.2"/><path fill="#858C7D" d="M420.2 1141.5l.6 15 43.3-33.8"/><path fill="#AA735B" d="M793 702.7l-23-14 20.5 46"/><path fill="#9F744C" d="M739 1135.7l42 9 17.6-41.4"/><path fill="#C79169" d="M775.7 1080.6l-39.5 28.2 62.4-5.5"/><path fill="#C49166" d="M798.6 1103.3l-62.4 5.5 3 27"/><path fill="#473C1D" d="M755.6 1148.4l25.4-3.7-42-9"/><path fill="#5C4824" d="M702 1123.6l53.6 24.8-16.5-12.7"/><path fill="#B78458" d="M736.2 1108.8l-34.2 14.8 37 12"/><path fill="#273D40" d="M1113.7 1132.8l-16-17-10.8 22"/><path fill="#FB9B6A" d="M1087 1138l-32.2 2 34.4 9.6"/><path fill="#32352C" d="M761.4 956.8l18.8 26.8 3.3-18"/><path fill="#9C8C76" d="M1054 1156.7l.8-16.8-17.2-15.6"/><path fill="#745541" d="M1087 1138l10.7-22.2-43 24"/><path fill="#653917" d="M909.8 1098l15-12.6-6.3-5.4"/><path fill="#946459" d="M884 1111.4L910 1098l-20.4-12"/><path fill="#734117" d="M889.4 1086l20.4 12 8.7-18"/><path fill="#271306" d="M924.8 1085.4l2-22.5-8.3 17"/><path fill="#8F5836" d="M781 1144.7l19.8-15.5-2.2-26"/><path fill="#735E4F" d="M926.8 1063l-23 4.7 14.7 12.3"/><path fill="#BC8966" d="M869 1097.2l15 14.2 5.4-25.4"/><path fill="#905A38" d="M842.4 1099l16.2 11.3 10.3-13"/><path fill="#020701" d="M946 1067.4l-19.2-4.5-2 22.4"/><path fill="#CF9669" d="M858.6 1110.3l25.5 1-15-14"/><path fill="#3B2C15" d="M666 925l34 2.8-5.5-53.3"/><path fill="#48473D" d="M738.6 933.3l1 56.2 21.8-32.7"/><path fill="#4E5754" d="M918.5 1080l-14.6-12.3-14.6 18.3"/><path fill="#323128" d="M700 927.8l39.5 61.7-1-56.2"/><path fill="#395050" d="M1135 1103.8l-37.3 12 16 17"/><path fill="#4F3E29" d="M661.2 892.8L666 925l28.5-50.5"/><path fill="#544533" d="M694.5 874.5l5.4 53.3 8.2-31"/><path fill="#5C4E35" d="M643 877.4l23 47.6-4.8-32.2"/><path fill="#583726" d="M625 835.6l18 41.8 32-22"/><path fill="#6E4B2D" d="M623 870.6l20 6.8-18-41.8"/><path fill="#6E4E33" d="M675 855.4l-32 22 18.2 15.4"/><path fill="#2E2218" d="M708.2 896.8l-8.3 31 38.6 5.5"/><path fill="#F19267" d="M1163 1103.7h-28l-2.7 26.7"/><path fill="#1B160F" d="M1056 1072.8l-42.4-6 51.6 21"/><path fill="#C18359" d="M1132.3 1130.4l2.7-26.6-21.3 29"/><path fill="#CDA37E" d="M835.6 997.7l-27.4 25 31.4 33.8"/><path fill="#302D1F" d="M757.2 1007.7l-14 24 37-48"/><path fill="#2F2B22" d="M739.5 989.5l17.7 18.2 23-24"/><path fill="#CFA995" d="M864 989l-28.4 8.7 4 58.8"/><path fill="#2A2A1D" d="M761.4 956.8l-22 32.7 40.8-6"/><path fill="#362E19" d="M780.2 983.6l-37 48L792 1008"/><path fill="#5F4E36" d="M842.4 1099l-43.8 4.3 25 14.7"/><path fill="#0E0300" d="M1065.2 1087.8l-51.6-21-17.5 8.5"/><path fill="#57220D" d="M1040.2 1105.5l25-17.7-69-12.5"/><path fill="#BE6C38" d="M1063 1119.4l2.2-31.6-25 17.7"/><path fill="#0D0601" d="M996 1075.3l-34-11-16 3"/><path fill="#7C4D1C" d="M1002.6 1059l-40.7 5.3 34 11"/><path fill="#B06A36" d="M1013.6 1066.7l-11-7.6-6.5 16.3"/><path fill="#625E53" d="M1054.8 1140l43-24.2-34.7 3.6"/><path fill="#937B6D" d="M1054.8 1140l8.3-20.6-25.4 5"/><path fill="#725337" d="M1063 1119.4l34.7-3.6-13.3-18.5"/><path fill="#C4805A" d="M1084.4 1097.3l-19.2-9.5-2 31.6"/><path fill="#C69269" d="M798.6 1103.3l41-46.8-64 24"/><path fill="#AE4420" d="M904 1067.7l-20.2-28-5 35.5"/><path fill="#768883" d="M962 1064.3l-26-20 10 23"/><path fill="#BB581A" d="M879 1075.2l4.8-35.4-30.6 39.7"/><path fill="#768688" d="M1037.6 1124.4l25.5-5-22.8-14"/><path fill="#92633A" d="M853.2 1079.5l-13.6-23-41 46.8"/><path fill="#825A2D" d="M883.8 1039.8l-44.2 16.7 13.6 23"/><path fill="#5A554C" d="M936 1044.3l-1-26.2-8.2 45"/><path fill="#170505" d="M946 1067.4l-10-23-9.2 18.5"/><path fill="#20170F" d="M904 1067.7l-25 7.5 10.4 10.8"/><path fill="#453524" d="M935 1018L884 1040l43 23"/><path fill="#4C3014" d="M926.8 1063l-43-23.2 20 28"/><path fill="#735B33" d="M798.6 1103.3l2.2 26 23-11.3"/><path fill="#6F5B4D" d="M800.8 1129.2l38.6 4.7-15.7-16"/><path fill="#875F39" d="M604.2 833l19 37.6 2-35"/><path fill="#54382B" d="M842.4 1099l-3 35 19.2-23.7"/><path fill="#363430" d="M823.7 1118l15.7 16 3-35"/><path fill="#241E1E" d="M839.4 1134l28.7-10.4-9.4-13.3"/><path fill="#B54E0B" d="M985 1101l52.6 23.4 2.6-19"/><path fill="#D97D3E" d="M879 1075.2l-25.8 4.3 15.7 17.7"/><path fill="#B1744B" d="M869 1097.2l-15.8-17.7-10.8 19.4"/><path fill="#543717" d="M853.2 1079.5l-54.6 23.8 43.8-4.4"/><path fill="#644632" d="M889.4 1086l-10.5-10.8-10 22"/><path fill="#110808" d="M946 1067.4l39 33.5 11-25.7"/><path fill="#000206" d="M924.8 1085.4L985 1101l-39-33.6"/><path fill="#321402" d="M996 1075.3l-11 25.6 55.2 4.5"/><path fill="#583020" d="M858.6 1110.3l9.5 13.3 16-12.2"/><path fill="#413226" d="M943.4 1107l41.7-6-60.2-15.6"/><path fill="#A95B28" d="M868 1123.6l52-4.7-36-7.6"/><path fill="#DC885D" d="M884 1111.4l36 7.5-10.2-21"/><path fill="#9C9292" d="M920 1119l23.4-12-33.6-9"/><path fill="#8B4B17" d="M909.8 1098l33.6 9-18.6-21.6"/><path fill="#6A5837" d="M702 1123.6l-30.3 25.5 84-.6"/><path fill="#A78968" d="M673.4 511l19 29.3 14.3-24.8"/><path fill="#BC9E89" d="M680 560.2l12.5-20-22-13.7"/><path fill="#D0AE97" d="M670.5 526.5l22 13.8-19-29.2"/><path fill="#A18661" d="M692.5 540.3l29.2 9.6-15-34.5"/><path fill="#545634" d="M721.7 550l20.7-35.6-25.7 12.3"/><path fill="#6C5934" d="M706.7 515.5l15 34.4-5-23.3"/><path fill="#E39C8E" d="M669 658.8l43.4-19-66.8-13.6"/><path fill="#BA6648" d="M718 665.3l-5.6-25.4-43.5 18.8"/><path fill="#EBBBBA" d="M645.6 626.2l66.8 13.7L680 560"/><path fill="#E8AF9E" d="M712.4 640l-20-99.7-12.3 20"/><path fill="#C7A48F" d="M803.3 508l3.5-29-68.3 6.5"/><path fill="#E3A092" d="M734 636.4l-21.6 3.5 5.5 25.3"/><path fill="#736E57" d="M806.8 479l8-6.2-28.8-.8"/><path fill="#646A4F" d="M738.5 485.5l68.3-6.5-20.8-7"/><path fill="#917B64" d="M814.8 472.8l-32-13.4L786 472"/><path fill="#85673F" d="M716.7 526.7l25.7-12.3-35.7 1"/><path fill="#63522E" d="M782.8 459.4l-41 4.3L786 472"/><path fill="#735130" d="M655.4 797.3L604.2 833l21 2.6"/><path fill="#9B8261" d="M742.4 514.4l3.8-11.3-39.5 12.5"/><path fill="#87724F" d="M706.7 515.5l39.5-12.4-7.7-17.5"/><path fill="#4B3C2B" d="M786 472l-44-8.3-3.5 21.8"/><path fill="#C7A488" d="M746.2 503l39 5.8-46.7-23.3"/><path fill="#383324" d="M802 891.8l20.7-43.3-44-12.6"/><path fill="#312A1E" d="M822.7 848.5l-6.5-43.4-37.4 31"/><path fill="#4E351D" d="M816.2 805l-25-17.2-12.4 48"/><path fill="#47402D" d="M809 930.7l13.7-82.2-20.8 43.3"/><path fill="#805137" d="M778.8 836l12.5-48.2-20.6 9.3"/><path fill="#B2684E" d="M770.7 797l20.6-9.2-50-28.8"/><path fill="#4A4A36" d="M775.8 927l33 3.7-7-39"/><path fill="#5A5C4B" d="M803.8 967.7l5-37-25.3 34.8"/><path fill="#646957" d="M780.2 983.6l23.6-16-20.3-2"/><path fill="#565442" d="M783.5 965.5l25.4-34.8-33.2-3.6"/><path fill="#5B311A" d="M791.3 787.8l2-18.2-47.6-28"/><path fill="#AC7A52" d="M808 743l-15-40.3-2.5 32"/><path fill="#8A6247" d="M790.5 734.7l-20.6-46-14.3 12"/><path fill="#C89875" d="M839.6 1056.5l-31.4-33.7-32.5 57.8"/><path fill="#A8785F" d="M755.7 700.6l14.2-11.8-52-23.5"/><path fill="#D28073" d="M770 688.8l-36-52.4-16 29"/><path fill="#3B2110" d="M745.7 741.5l47.6 28-37.6-69"/><path fill="#924427" d="M741.4 759l50 28.8-45.7-46.3"/><path fill="#A08152" d="M793.3 769.6L808 743l-17.5-8.3"/><path fill="#47351C" d="M755.7 700.6l37.6 69-2.8-35"/><path fill="#C59F85" d="M785 508.8l18.3-.7-64.8-22.5"/><path fill="#BC7259" d="M604.6 642.3L593 664.5l28.3-5.3"/><path fill="#D09884" d="M621.7 596.7l-25.2 22.6 8 23"/><path fill="#8E4C30" d="M593 664.5l-32.4 40.8 34.5-23.7"/><path fill="#A35B42" d="M614.4 692.3L593 664.5l2 17"/><path fill="#736C4E" d="M609 509.6L598.4 548l17.8.7"/><path fill="#D59C8D" d="M596.5 619.3l-3.4 45.2 11.6-22.2"/><path fill="#44402C" d="M598.3 548l19.6 20.2-2-19.5"/><path fill="#985C3F" d="M616 548.7l2 19.5 27-49.7"/><path fill="#D18767" d="M645 518.5l-27 49.7 3.7 28.5"/><path fill="#CD876A" d="M618 568.2l-21.5 51 25.2-22.5"/><path fill="#8C4A31" d="M621.3 659.2l-28.2 5.3 21.4 27.8"/><path fill="#7A4732" d="M595 681.6l-34.4 23.7 53.8-13"/><path fill="#CB8261" d="M617.8 782.7L602 806.5l63-33.3"/><path fill="#8C5935" d="M601.7 781.4l.4 25 15.8-23.7"/><path fill="#865C3A" d="M602 806.5l2.2 26.6 51.2-35.7"/><path fill="#B97752" d="M665 773.2l-63 33.3 53.4-9.2"/><path fill="#A05C40" d="M641.4 752.2l-39.7 29.2 16 1.3"/><path fill="#4C3423" d="M560.6 705.3l34 54 19.8-67"/><path fill="#512B19" d="M594.6 759.2l7 22.2 39.8-29.2"/><path fill="#372A1C" d="M614.4 692.3l-19.8 67 33.5-23.6"/><path fill="#331909" d="M628 735.7l-33.4 23.5 46.8-7"/><path fill="#686047" d="M609 509.6L553 509l30.3 25.2"/><path fill="#D08C6E" d="M650.2 500v-41l-17.5 19.6"/><path fill="#58503A" d="M583 534.2l15.3 13.8 10.8-38.4"/><path fill="#C08164" d="M682 477.6L650.2 459v41"/><path fill="#BA7E5E" d="M632.7 478.6l-40.8-17-10.3 16"/><path fill="#967452" d="M592 461.5l-81 25 70.7-8.8"/><path fill="#D08E6F" d="M650.3 459l-58.4 2.5 40.7 17"/><path fill="#865F46" d="M692 495.2l11.6-25-27.2 25.3"/><path fill="#BF8C6C" d="M676.4 495.5l5.5-18L650 500"/><path fill="#574431" d="M738.5 485.5l-35-15.3-11.5 25"/><path fill="#A9684C" d="M703.6 470.2l-21.7 7.4-5.6 18"/><path fill="#262721" d="M581.7 477.7l-70.6 8.7 51.7 15.3"/><path fill="#735740" d="M516.5 539l8 15.4 58.6-20.2"/><path fill="#192720" d="M524.6 554.4l28.2 5 30.3-25.2"/><path fill="#322410" d="M511 486.4l12.3 21 39.4-5.7"/><path fill="#3F3D2B" d="M552.8 559.5l45.5-11.5-15.2-13.8"/><path fill="#A78068" d="M553.7 524.6L516.5 539l66.6-4.8"/><path fill="#423E28" d="M523.3 507.3l29.5 1.7 10-7.3"/><path fill="#383820" d="M562.7 501.7l-10 7.3 56.4.6"/><path fill="#462818" d="M742 463.7l-38.4 6.5 35 15.3"/><path fill="#946F58" d="M552.8 509l1 15.6 29.3 9.6"/><path fill="#ADA184" d="M885.6 419.5l-15-48.3-3.3 43.4"/><path fill="#E6C9BE" d="M1193 1015.7l-40.3-15.4-10.6 21"/><path fill="#E2C3B3" d="M1092.2 974.7l50 46.5 10.5-21-108-46.6 25.3 33"/><path fill="#A48F95" d="M1033.5 968.8l11-15.2-21.4 20"/><path fill="#B8ADA4" d="M1070 986.5l-25.4-33-11 15.3"/><path fill="#F1B89A" d="M1224 1029.8l-31-14-25.5 19.5"/><path fill="#CCC0C6" d="M1044.6 953.6l-53-49 31.5 69"/><path fill="#E7B89B" d="M1208.8 1053l15-23.2-56.3 5.5"/><path fill="#A88E77" d="M943.4 895.8l-4-36-25 31.5"/><path fill="#B39687" d="M954.3 879.6l-15-20 4 36.2"/><path fill="#665B41" d="M914.4 891.3l25-31.6H915"/><path fill="#716A4C" d="M939.4 859.7l-3.3-42.3-21 42.3"/><path fill="#BAA697" d="M966.5 867.7l-27-8 14.8 20"/><path fill="#F3CFBB" d="M1023 973.6l-31.5-69-1.3 41.5"/><path fill="#9A9789" d="M990.2 946l1.3-41.3-32.2 23.3"/><path fill="#A18271" d="M959.3 928l32.2-23.3-26-2.4"/><path fill="#C39C8E" d="M991.5 904.7l-25-37-1 34.6"/><path fill="#B78B6A" d="M965.6 902.3l1-34.6-12.3 12"/><path fill="#403524" d="M915 859.7l21-42.3-43.5-2.8"/><path fill="#C6AFA2" d="M1167.5 1035.3l25.5-19.6-51 5.5"/><path fill="#CAC0B4" d="M907.2 363l-25.7-21.6 19 35.3"/><path fill="#C4B6AC" d="M936.3 384.3l-29-21.4-7 13.7"/><path fill="#C7BCAF" d="M920.3 418l16-33.7-36-7.6"/><path fill="#B0AA97" d="M900.4 376.7l-19-35.3-10.7 29.8"/><path fill="#9C9683" d="M870.7 371.2l10.8-29.8-38 3"/><path fill="#C6BAAD" d="M941.6 419.7l-5.3-35.4-16 33.7"/><path fill="#A29D89" d="M919.5 461.5l24-14.5-22.5-7"/><path fill="#B1AA93" d="M943.6 447l-2-27.3L921 440"/><path fill="#7E7B63" d="M843.5 344.5l38-3-30-21"/><path fill="#BBB4A1" d="M938 478l5.6-31-24 14.5"/><path fill="#9E9B84" d="M921 440l20.6-20.3-21.3-1.7"/><path fill="#B2AA9B" d="M801.8 286l18.3-42-29 8"/><path fill="#D0CBBF" d="M820 244l-56.8-28.4L791 252"/><path fill="#C8BCB1" d="M791 252L763 215.7 751.6 229"/><path fill="#C4BAAF" d="M836 268.8l-16-25L802 286"/><path fill="#A49D87" d="M881.5 341.4l-2.8-21.7-27.2.8"/><path fill="#D3CBC4" d="M763.2 215.6l-24.3-1 12.6 14.4"/><path fill="#65563F" d="M892.5 814.6l43.6 2.8-15.5-16.6"/><path fill="#929379" d="M851.5 320.5l13.4-23-28.5 4.4"/><path fill="#999686" d="M865 297.4l-29-28.6.5 33"/><path fill="#A6A18D" d="M836.5 302l-.6-33.2-34.2 17.2"/><path fill="#9C9984" d="M878.7 319.7L865 297.4l-13.5 23"/><path fill="#D19683" d="M927.2 733.5l24.6 5-32-45"/><path fill="#DBA492" d="M920 693.5l31.8 45-14.2-61.6"/><path fill="#EFBCB7" d="M951.8 738.4l21.4-63.8-35.6 2.3"/><path fill="#BBA183" d="M947.4 776.6l4.4-38.2-24.6-5"/><path fill="#86816B" d="M902.6 465l35.4 13-18.5-16.5"/><path fill="#6A6043" d="M923.8 777.4l23.6-.8-20.2-43"/><path fill="#84714F" d="M920.5 800.8L942 798 924 777.5"/><path fill="#8C8260" d="M936 817.4l6-19.3-21.5 2.8"/><path fill="#EBA8A0" d="M944.6 649.6l28.6 25-12-51.4"/><path fill="#8F8065" d="M942 798l5.4-21.4-23.6.8"/><path fill="#E88C78" d="M937.6 677l35.6-2.4-28.6-25"/><path fill="#D3C4B4" d="M959 558.2l-7.2-39-12.8 30.6"/><path fill="#B4A99A" d="M951.8 519.2L938 478l-28 39.5"/><path fill="#A69C87" d="M939 549.8l12.8-30.6-41.7-1.7"/><path fill="#AFA195" d="M910 517.5l28-39.6-35.4-13"/><path fill="#D6BEB7" d="M916.2 619L959 558l-38 4.2"/><path fill="#C2917A" d="M921 562.4l38-4.2-20-8.4"/><path fill="#ECB0B0" d="M961 623.2l-2-65-42.8 60.7"/><path fill="#E98C78" d="M983 650.4l-24-92.2 2 65"/><path fill="#F28F84" d="M973.2 674.6l9.8-24.2-22-27.2"/><path fill="#A88F74" d="M326.8 1142.4l-7.4-11-24.2 26.7"/><path fill="#CE7543" d="M424.5 1234l35.5-.3-12.4-26"/><path fill="#AE7543" d="M460 1233.7l19-3-31.4-23"/><path fill="#847D6E" d="M342.7 1129.7l-23.3 1.6 7.4 11"/><path fill="#233644" d="M479 1230.6l8.6 10 13.2-42.8"/><path fill="#EFA379" d="M523.5 1221.5l39.8 4.7 5-11"/><path fill="#B29894" d="M523.7 1235l39.6-8.8-39.8-4.7"/><path fill="#8A8579" d="M617.8 1231.6l7.3-16.5-43 7.5"/><path fill="#7B7B78" d="M568.3 1215l13.8 7.5 48.3-20.3"/><path fill="#9B8577" d="M582 1222.5l43-7.4 5.3-12.8"/><path fill="#D08750" d="M563.3 1226.2l18.8-3.7-13.7-7.4"/><path fill="#596F74" d="M500.8 1197.8l-13.2 42.7 20.5-21.2"/><path fill="#C09C84" d="M508 1219.3l15.7 15.8-.2-13.5"/><path fill="#B1A49F" d="M487.6 1240.5l15 2.5 5.5-23.7"/><path fill="#DDB39F" d="M502.6 1243l21-8-15.5-15.7"/><path fill="#D39566" d="M276.2 1156.5l-33.6 18.2 11.3 16"/><path fill="#F2A97E" d="M319.4 1131.3l-43.2 25.2 19 1.6"/><path fill="#CBC0B6" d="M751.6 229L739 214.5l4 27.4"/><path fill="#DAAA8A" d="M283.4 1191.2l-7.2-34.7-22.3 34.2"/><path fill="#AA8A63" d="M295.2 1158l-19-1.5 7.2 34.7"/><path fill="#E89378" d="M929 1228l18 3.4 2.6-57.2"/><path fill="#BE8663" d="M949.6 1174.2l-2.6 57.2 11.3-41.6"/><path fill="#FB8643" d="M947 1231.4l39.3 2 13.8-39.8"/><path fill="#866347" d="M1000 1193.6l-13.7 39.8 18.6-20"/><path fill="#F59360" d="M958.3 1189.8l-11.3 41.6 53-37.8"/><path fill="#BB9A89" d="M900 1228.7l14.5-6.5-3.7-31"/><path fill="#B6834E" d="M865 1235.3l35-6.6 10.8-37.5"/><path fill="#73573C" d="M892 1187.7l-27 47.6 45.8-44"/><path fill="#DD9869" d="M914.5 1222.2l14.6 5.7-4-36.2"/><path fill="#C1917D" d="M910.8 1191.2l3.7 31 10.5-30.4"/><path fill="#F3A172" d="M1087.2 1196l4.3 34.4 23.7-37.5"/><path fill="#FD9A6A" d="M1050.8 1236.6l40.7-6.2-4.3-34.5"/><path fill="#FF9B68" d="M1052.8 1204.2l-2 32.4 36.4-40.7"/><path fill="#536A7C" d="M1005 1213.3l-3.2 23 24.8-14"/><path fill="#3B4C5B" d="M986.3 1233.4l15.5 3 3-23"/><path fill="#AA846D" d="M1026.6 1222.3l24.2 14.3 2-32.4"/><path fill="#436173" d="M1001.8 1236.4l32.4 5-7.6-19"/><path fill="#746965" d="M1034.2 1241.4l16.6-4.8-24.2-14.3"/><path fill="#FAAF8C" d="M925 1191.8l4 36 20.6-53.6"/><path fill="#FF854D" d="M849.7 1189.6l15.2 45.7 27-47.6"/><path fill="#8C7564" d="M718.3 1206.2l3.3 30 9.8-25.7"/><path fill="#CB6323" d="M731.4 1210.5l-9.8 25.6 23.4-25"/><path fill="#F68345" d="M721.6 1236l14.4.2 9-25"/><path fill="#826C54" d="M679.4 1220.4l4.4 17.6 22.7-13.4"/><path fill="#B7A397" d="M706.5 1224.6l15 11.5-3.2-29.8"/><path fill="#614535" d="M791.7 1202l24.7 32 12.2-36.3"/><path fill="#ED6B22" d="M745 1211l-9 25.2 33.3-32.8"/><path fill="#D27640" d="M816.4 1234l10.3-5.6 2-30.7"/><path fill="#FD894D" d="M826.7 1228.4l38.2 7-15.3-45.8"/><path fill="#EF773F" d="M828.6 1197.7l-2 30.7 23-38.8"/><path fill="#8B5037" d="M769.3 1203.4l-4.7 33.2 27-34.6"/><path fill="#5F4A39" d="M779.6 1240.6l36.8-6.5-24.7-32"/><path fill="#FC813C" d="M736 1236.2l28.6.4 4.7-33.2"/><path fill="#715841" d="M764.6 1236.6l15 4 12-38.6"/><path fill="#898C6F" d="M516 286.4l-66.2 8.6 26.6 12"/><path fill="#BAB9AB" d="M434 363.8l10-18.7-4.8-21.4-11 75.2 39-21.3"/><path fill="#919067" d="M419 508.7l20.4-7-27.3-37.3 12.2 77.4 15.2-40"/><path fill="#7E7C61" d="M467 377.5l-38.7 21.3 27.4 12.7"/><path fill="#5B593B" d="M434.3 460.6l-22.2 3.8 27.4 37.4"/><path fill="#6E6F51" d="M455.7 411.5l-43.6 53 22.3-4"/><path fill="#A39C87" d="M428.3 398.8L412 464.4l43.7-53"/><path fill="#A79F8F" d="M743 242l-4-27.5-20.7 28.8"/><path fill="#87886A" d="M476.4 307l-26.6-12 20.7 36.7"/><path fill="#B3AF93" d="M449.8 295l-10.6 28.6 31.3 8"/><path fill="#ACA894" d="M470.5 331.7l-31.3-8 5 21.4"/><path fill="#9C8856" d="M470.2 690l-25.2-9.4 12.6 27"/><path fill="#AAA887" d="M435 594l7.8 59 23.2.4"/><path fill="#BFA08F" d="M466 653.4l-23.2-.5 27.4 37"/><path fill="#AA8769" d="M442.8 653l2.2 27.6 25.2 9.4"/><path fill="#AAA994" d="M494 272.6L449.7 295l66.2-8.6"/><path fill="#BCA99E" d="M458.8 592.7l-24 1.4 31.2 59.4"/><path fill="#98987C" d="M424.2 541.8l-.2 28.6 25-12.2"/><path fill="#8A926A" d="M424 570.4l11 23.7 14-35.8"/><path fill="#666146" d="M461.2 574.8L435 594l23.8-1.3"/><path fill="#8A8E76" d="M439.4 501.8l-15.2 40 24.7 16.4"/><path fill="#60553C" d="M449 558.2l-14 36 26.2-19.4"/><path fill="#5B654D" d="M649.6 201.8l-5 15.6 35.8 34"/><path fill="#C59A73" d="M445 680.6l11 75 1.6-48"/><path fill="#94997F" d="M659 189l-31.3-.8 22 13.6"/><path fill="#7C836B" d="M627.7 188.2l17 29.2 5-15.6"/><path fill="#646F55" d="M644.7 217.4l-40.7-6 44.8 25"/><path fill="#6D7B66" d="M680.4 251.5l-35.7-34 15.6 43.5"/><path fill="#A9A290" d="M556.3 277.5l-62.4-5 22 14"/><path fill="#A7A18C" d="M718.3 243.3l20.6-28.8-45.2 8.3"/><path fill="#A4A38A" d="M693.8 222.8L659 189l-9.4 12.8"/><path fill="#B7AF9E" d="M739 214.5l-38.2-27.8-7 36"/><path fill="#BEB5A3" d="M700.8 186.7L659 189l34.8 33.8"/><path fill="#727B67" d="M660.3 261l-15.6-43.6 4 19"/><path fill="#B2AC94" d="M548.8 214.3L507 228l33.2 9.3"/><path fill="#898E78" d="M540.2 237.3l-33-9.4 12 27.6"/><path fill="#303925" d="M648.8 236.4l-44.8-25 34.3 38"/><path fill="#6B7959" d="M519.2 255.6l-25.3 17 62.3 5"/><path fill="#908E75" d="M507 228l-13 44.6 25.2-17"/><path fill="#3C4833" d="M638.3 249.5l-34.3-38-8.2 13.2"/><path fill="#9A9E92" d="M595.8 224.7l-47-10.4-8.6 23"/><path fill="#8B8B6F" d="M570.5 201l-21.7 13.3 47 10.4"/><path fill="#636952" d="M604 211.4L570.5 201l25.3 23.7"/><path fill="#D8BDB3" d="M279.3 1130.5l-59.3 32 22.6 12.2"/><path fill="#ECB38F" d="M276.2 1156.5l3.2-26-36.8 44.2"/><path fill="#B0B2B2" d="M307.3 1115.2l-27.7 15 39.8 1"/><path fill="#E2B29B" d="M276.2 1156.5l43.2-25.2-39.8-1h-.2"/><path fill="#999A92" d="M342.7 1129.7l-35.4-14.5 12 16"/><path fill="#554435" d="M544 997.8l-45.4-10.6 16.5 17"/><path fill="#4A4A2E" d="M481.5 850.5l5.7 60 37.6-10.4"/><path fill="#444736" d="M524.8 900l-37.6 10.4 29.3 42.6"/><path fill="#756B4A" d="M487.2 910.4l23 56.2 6.3-13.6"/><path fill="#B5997D" d="M874.5 464.4l-7.2-49.8-29-12.8"/><path fill="#272317" d="M525.5 860l-44-9.5 43.3 49.6"/><path fill="#3D3A25" d="M510.3 966.6l-11.7 20.6 45.4 10.6"/><path fill="#4E442E" d="M472.3 767.3l-7.8 28L505 817"/><path fill="#38341F" d="M505 817l-23.5 33.5 44 9.4"/><path fill="#ECAF89" d="M357 1095.5l-49.7 19.7 35.4 14.5"/><path fill="#292816" d="M464.5 795.4l17 55L505 817"/><path fill="#CF836C" d="M456 755.5l8.5 40 7.8-28.2"/><path fill="#E4AF91" d="M403 1107l-46-11.5 26 20"/><path fill="#C2B8B2" d="M416.3 1061l2.4 22 50.4-53.6-112 66 61.7-12.4"/><path fill="#9EA098" d="M418.7 1083l-61.6 12.5 46 11.5"/><path fill="#ECAF92" d="M383 1115.6l-26-20-14.3 34"/><path fill="#BE8F60" d="M490.4 1037.4l-21.3-8-10.8 26"/><path fill="#C9BAB5" d="M458.2 1055.4l11-26-50.5 53.6"/><path fill="#3E3926" d="M515 1004.2l-16.4-17-8.2 50.2"/><path fill="#A4774D" d="M498.6 987.2l-29.5 42.2 21.4 8"/><path fill="#CB774F" d="M457.6 707.6l-1.5 48 16.3 11.7"/><path fill="#595C4A" d="M516.5 953l-6.2 13.6 33.7 31.2"/><path fill="#93582F" d="M405 1225.8l42.6-18-26.6-1.7"/><path fill="#C36B38" d="M328.6 1226.7l41 .5-10.6-12.7"/><path fill="#DD7C3A" d="M447.6 1207.7l31-6-31.5 2.4"/><path fill="#99693D" d="M447.6 1207.7l31.4 23-.5-29"/><path fill="#3D3D3D" d="M478.5 1201.7l.5 29 21.8-33"/><path fill="#C06D3B" d="M368.2 1195l1.4 32.2 9-15"/><path fill="#9D715E" d="M478.5 1201.7l22.3-4-.3-14.4"/><path fill="#7F7162" d="M378.6 1212.3l26.5 13.5 16-19.7"/><path fill="#E28045" d="M359 1214.5l10.6 12.7-1.4-32"/><path fill="#B27F67" d="M378.6 1212.3l-9 15 35.5-1.5"/><path fill="#E78140" d="M421 1206l26.6 1.7-.5-3.6"/><path fill="#16282F" d="M568.3 1215l62-12.8-45-10.7"/><path fill="#242B2C" d="M558.7 1175.7l9.6 39.4 17-23.5"/><path fill="#9E632E" d="M540.3 1204.2l28 11-9.6-39.5"/><path fill="#3F271C" d="M585.2 1191.5l45 10.7-15.8-25.2"/><path fill="#583111" d="M630.3 1202.2l40.2-4.4-56-20.8"/><path fill="#AA7C61" d="M500.8 1197.8l7.3 21.5 11-15.7"/><path fill="#836138" d="M396.7 1186.3v-30.6l-33.5 7"/><path fill="#B57751" d="M503.5 1180.8l-3 2.5.3 14.5 18.3 5.8"/><path fill="#AA6A37" d="M523.5 1221.5l44.8-6.4-28-10.8"/><path fill="#51563D" d="M519 1203.6l4.5 18 16.8-17.4"/><path fill="#C88656" d="M326.8 1142.4l-31.6 15.7 19.2 2.7"/><path fill="#F09A68" d="M630.3 1202.2l-5.2 13 45.5-17.4"/><path fill="#CD8661" d="M314.4 1160.7l-19.2-2.6 17 22"/><path fill="#B38E6A" d="M254 1190.7L288 1208l-4.8-16.8"/><path fill="#BE8960" d="M295.2 1158l-11.8 33.2 28.8-11.3"/><path fill="#997E64" d="M283.4 1191.2l4.8 16.7 24-28"/><path fill="#B77943" d="M328.6 1226.7l30.4-12.2-41.4-21"/><path fill="#977A58" d="M396.8 1155.7l-17-13-16.6 20"/><path fill="#3B4F59" d="M380 1142.6l-29 6 12.2 14"/><path fill="#3D575E" d="M337.3 1172.8l13.8-24.3-36.6 12.2"/><path fill="#42585F" d="M363.2 1162.6l-12-14-14 24.2"/><path fill="#3D5453" d="M351 1148.5l-24.2-6-12.4 18.2"/><path fill="#E69667" d="M315 1231.8l13.6-5-40.4-19"/><path fill="#C9774C" d="M288.2 1208l40.4 18.7-11-33.3"/><path fill="#747A6B" d="M268.8 1207.3l19.4.6-34.3-17.3"/><path fill="#AE7856" d="M508 1219.3l15.5 2.2-4.4-18"/><path fill="#B8A59C" d="M949.6 1174.2l8.7 15.6 5.3-13.5"/><path fill="#676961" d="M975 1160l-25.4 14.2 14 2"/><path fill="#CCB683" stroke="#929D79" stroke-miterlimit="10" d="M981 1140l-31.4 34.2L975 1160z"/><path fill="#E4B18F" d="M963.6 1176.3l-5.3 13.5 48.7-7"/><path fill="#F28F6C" d="M958.3 1189.8l41.8 3.8 7-10.8"/><path fill="#A57A5F" d="M926.2 1163.4l23.4 10.8-5.2-25"/><path fill="#D5917A" d="M968 1136.8l-18.4 37.4 31.4-34"/><path fill="#7D6343" d="M1000 1193.6l5 19.7 2-30.5"/><path fill="#7C8C92" d="M925 1191.8l24.6-17.6-23.4-10.8"/><path fill="#DAB8AC" d="M944.4 1149.3l5.2 25 18.4-37.5"/><path fill="#95A09C" d="M910.8 1191.2l14.2.6 1.2-28.4"/><path fill="#AF9585" d="M1115.2 1193l21.5 1-25-17.2"/><path fill="#F6AF92" d="M1077 1183.5l10.2 12.4 24.5-19.2"/><path fill="#EDAA8A" d="M1087.2 1196l28-3-3.5-16.2"/><path fill="#72949D" d="M1111.7 1176.8l25 17.2 7.3-18.6"/><path fill="#C5C4C3" d="M1136.7 1194l18.2-1.6-11-17"/><path fill="#AF8264" d="M1007 1182.8l-2 30.5 32.5-24.6"/><path fill="#F6A17F" d="M1037.5 1188.7l49.7 7.2-10.3-12.5"/><path fill="#AB8670" d="M1005 1213.3l21.6 9 11-33.6"/><path fill="#B0856E" d="M1026.6 1222.3l26.2-18-15.3-15.6"/><path fill="#FE9C66" d="M1052.8 1204.2l34.4-8.3-49.7-7.3"/><path fill="#9E7454" d="M828.6 1197.7l21-8-7.7-18.3"/><path fill="#916447" d="M718.3 1206.2l13 4.3-.7-19.8"/><path fill="#946C4F" d="M730.6 1190.7l.8 19.8 17-14.4"/><path fill="#E28F6A" d="M745 1211l24.3-7.6-21-7.3"/><path fill="#D49A88" d="M701.2 1196.3l17 10 12.4-15.6"/><path fill="#F4834B" d="M731.4 1210.5l13.6.6 3.3-15"/><path fill="#E27B3A" d="M748.3 1196l21 7.4 7.5-19.2"/><path fill="#CCB683" stroke="#929D79" stroke-miterlimit="10" d="M918 1176.3l-7.2 15 15.4-28z"/><path fill="#C0BDB0" d="M706.5 1224.6l11.8-18.4-17-10"/><path fill="#A88D71" d="M670.5 1197.8l-1.8 12.7 32.5-14.2"/><path fill="#B19683" d="M679.4 1220.4l27 4.2-5.2-28.3"/><path fill="#C3834B" d="M668.7 1210.5l10.7 10 21.8-24.2"/><path fill="#E1B399" d="M849.7 1189.6l42.2-2 1.4-12.6"/><path fill="#BAA59A" d="M892 1187.7l18.8 3.5-17.4-16.2"/><path fill="#EF9D81" d="M856.3 1176.2l-6.6 13.4 43.7-14.6"/><path fill="#F28747" d="M769.3 1203.4l22.4-1.4-15-17.8"/><path fill="#6F7373" d="M893.4 1175l17.4 16.2 7-15"/><path fill="#1D2B3B" d="M776.8 1184.2l51.8 13.5 13.3-26.3"/><path fill="#5A4B42" d="M791.7 1202l37-4.3-52-13.5"/><path fill="#E49566" d="M842 1171.4l7.7 18.2 6.6-13.4"/><path fill="#F29361" d="M670.5 1197.8L625 1215l43.7-4.5"/><path fill="#BDB6A4" d="M453 533.6l8.7-3.3 29.7-17"/><path fill="#DEB8AA" d="M553.8 449.8l-74.2-55 20.8 77.6"/><path fill="#CAAD97" d="M479.6 394.7l-26.7 139 20-33.7"/><path fill="#DCC9C4" d="M500.4 472.4l-20.8-77.7L473 500"/><path fill="#645F4F" d="M461.7 530.3l9.4 5 20.4-22"/><path fill="#EFC3AD" d="M1155 1192.4l19.5-1.8-30.5-15.2"/><path fill="#C5B9AD" d="M473 500l-20 33.6 38.4-20.4"/><path fill="#555137" d="M524.2 320.8L492 343.3l40-9.5"/><path fill="#5F5D40" d="M492 343.3l-12.4 51.4 52.5-61"/><path fill="#D9B6A7" d="M555.6 343.3l-76 51.4 74.2 55"/><path fill="#BF9471" d="M532 333.8l-52.4 61 76-51.5"/><path fill="#D9977D" d="M575 596.3l-69.8 16 42 44.6"/><path fill="#C5A18B" d="M515.2 578l-10 34.2 24.4-17.2"/><path fill="#C49877" d="M480.3 575.8l25 36.4 10-34.3"/><path fill="#A0784D" d="M500.8 566l-20.5 9.8 35 2"/><path fill="#4F523E" d="M500.8 309.5l-9 33.8 32.4-22.5"/><path fill="#404727" d="M491.4 513.2L471 535.4l16.6-13"/><path fill="#CB9F7E" d="M529.6 595l-24.4 17.2 69.8-16"/><path fill="#B5A78F" d="M487.6 522.3l-7.3 36 31.6-34"/><path fill="#D4C8C1" d="M471 535.4l9.3 22.8 7.3-36"/><path fill="#B89E83" d="M480.3 558.2v17.6l20.5-9.7"/><path fill="#AF9174" d="M512 524.2l-31.7 34 20.5 8"/><path fill="#DFBBAB" d="M838.3 401.8l-28-73.4-28 116"/><path fill="#A78D6B" d="M810.4 328.4L762 284l-20.5 24.6"/><path fill="#896C4A" d="M741.5 308.6L748 263l-23.8 25"/><path fill="#847650" d="M762 284l-14-21-6.5 45.6"/><path fill="#68624B" d="M748 263l-30.5 8.6 6.7 16.5"/><path fill="#7F7A6E" d="M351 1148.5l-8.3-18.8-16 12.7"/><path fill="#A57D5D" d="M724.2 288h-58l75.3 20.6"/><path fill="#8B7053" d="M867.3 414.6L851.5 367 838.3 402"/><path fill="#A28665" d="M851.5 367l-41-38.6 27.8 73.4"/><path fill="#DAA796" d="M505.2 612.2L493.6 671l53.6-14"/><path fill="#E4C2B4" d="M782.3 444.4l28-116-68.8-19.8"/><path fill="#BB8D6F" d="M666 288l-41.5-10.7-8 34.8"/><path fill="#BC875B" d="M555.6 343.3l52-48.8-75.5 39.3"/><path fill="#6C6345" d="M532 333.8l37-34-44.8 21"/><path fill="#E5C6B7" d="M741.5 308.6L666 288l47 154.5"/><path fill="#4B4B37" d="M569 299.8l-25.2-3.4-19.6 24.4"/><path fill="#867853" d="M607.6 294.5l-38.7 5.3-37 34"/><path fill="#C09476" d="M616.6 312l-9-17.5-52 48.8"/><path fill="#4F543F" d="M543.8 296.4l-43 13 23.4 11.4"/><path fill="#E7BCB0" d="M713 442.5L666 288l-49.4 24"/><path fill="#A59276" d="M624.5 277.3l-17 17.2 9 17.6"/><path fill="#957142" d="M605.3 1018.7l-50.5-9.2 32.8 25.3"/><path fill="#724924" d="M597 1096l-44.7-22.7 37.4 35"/><path fill="#88451B" d="M589.7 1108.4l-37.4-35-11 12"/><path fill="#594D40" d="M523 1074.6h-23l25.2 31"/><path fill="#794E35" d="M541.4 1085.4l11-12-29.5 1.2"/><path fill="#2C302E" d="M552.3 1073.3l-52.4 1.3h23"/><path fill="#534822" d="M565.2 1048.2l-13 25L597 1096"/><path fill="#D87737" d="M420.8 1156.5l-24-.8v30.6"/><path fill="#AC7C49" d="M587.6 1034.8l-22.4 13.4L597 1096"/><path fill="#74572E" d="M620.2 1042.7l-15-24-17.6 16"/><path fill="#A2743F" d="M554.8 1009.5l10.4 38.7 22.4-13.4"/><path fill="#8A8E85" d="M420.2 1141.5l-23.4 14.2 24 .8"/><path fill="#DA804F" d="M464 1122.7l-41.3 1.6-2.5 17.2"/><path fill="#F5906B" d="M463.2 1102.7l-40.5 21.6 41.4-1.6"/><path fill="#C4A395" d="M422.7 1124.3l-26 31.4 23.5-14.2"/><path fill="#6A4E25" d="M661.5 1066.5l-56.2-47.8 15 24"/><path fill="#CE8D54" d="M481.5 1115l-18.3-12.3 1 20"/><path fill="#525652" d="M525.2 1105.5l-25.3-31-4 25.2"/><path fill="#5E4E2F" d="M500 1074.6l-31.5-8 9.5 30"/><path fill="#525E5D" d="M496 1099.7l4-25-22 22"/><path fill="#AB8550" d="M478 1096.7l-14.8 6 18.3 12.4"/><path fill="#DD884D" d="M468.5 1066.6l-5.3 36 14.8-6"/><path fill="#926C48" d="M543.2 791.8l-8.2 28.8 24.5-45.2"/><path fill="#D8A089" d="M493.6 671l14.6 41 39-55"/><path fill="#9D7246" d="M494 769.3l41 51.3 8.2-28.8"/><path fill="#353021" d="M574 813.2l-23.7 65.2 56-12.8"/><path fill="#5F4A2E" d="M559.5 775.4L535 820.6l39-7.4"/><path fill="#383524" d="M535 820.6l15.3 57.8 23.7-65.2"/><path fill="#AE8257" d="M512.3 753.5L494 769.3l49.2 22.5"/><path fill="#D0806A" d="M547.2 657l-39 55 40.8-25.6"/><path fill="#B86D4A" d="M549 686.4L508.2 712l27.2 26.6"/><path fill="#BA7F54" d="M535.4 738.6L508.2 712l4 41.5"/><path fill="#BB8C62" d="M508.2 712L494 769.2l18.3-15.8"/><path fill="#171B12" d="M550.8 930.3l6 49.6 12.4-25.4"/><path fill="#13140F" d="M632 989.3l-26.7 29.4 107.5 2.4"/><path fill="#303625" d="M557 980l48.3 38.7-21.2-48"/><path fill="#3B362B" d="M606.2 865.6l-56 12.8 28.5 23.8"/><path fill="#2C1F11" d="M712.8 1021l-107.5-2.3 79.7 22.8"/><path fill="#151B14" d="M584 970.8l21.3 48 26.6-29.5"/><path fill="#293121" d="M578.7 902.2l-28 28 18.5 24.4"/><path fill="#29211C" d="M550.3 878.4l.5 52 28-28.2"/><path fill="#343629" d="M569.2 954.6L557 980l27-9.2"/><path fill="#4D3A1E" d="M685 1041.5l-79.7-22.8 56.2 47.8"/><path fill="#786640" d="M717.5 271.6L666 288h58.2"/><path fill="#A8A28A" d="M607.6 294.5l-51.3-17 12.6 22.3"/><path fill="#58684F" d="M519.2 255.6l37 22 26-12.7"/><path fill="#7C7361" d="M582.2 265l-26 12.5 51.4 17"/><path fill="#98947E" d="M556.3 277.5l-40.3 9 27.8 10"/><path fill="#777B60" d="M543.8 296.4l-27.8-10-15.2 23"/><path fill="#474835" d="M818.7 312l-17-26 8.7 42.4"/><path fill="#8F957F" d="M595.8 224.7l-55.6 12.6 49 6.2"/><path fill="#838D75" d="M618 252.4L596 224.7l-6.6 18.8"/><path fill="#7E866D" d="M638.3 249.5l-42.5-24.8 22.3 27.7"/><path fill="#5D6B54" d="M589.2 243.5l-49-6.2 42 27.6"/><path fill="#BEA190" d="M453 533.6l-4 24.6 12.7-28"/><path fill="#797D5E" d="M516 286.4L476.4 307l24.4 2.5"/><path fill="#675C3F" d="M455.7 411.5l-16.3 90.3 40.2-107"/><path fill="#655E3B" d="M492 343.3l-25 34.2 12.6 17.2"/><path fill="#897659" d="M479.6 394.7l-40.2 107 13.5 32"/><path fill="#79724D" d="M439.4 501.8l9.5 56.4 4-24.6"/><path fill="#494A33" d="M467 377.5l-11.3 34 24-16.8"/><path fill="#737A5B" d="M476.4 307l-6 24.7 30.4-22.2"/><path fill="#63694D" d="M500.8 309.5l-30.3 22.2 21.4 11.6"/><path fill="#8D8D6F" d="M470.5 331.7l-36.6 32 58-20.4"/><path fill="#616448" d="M434 363.8l33 13.7 25-34.2"/><path fill="#576145" d="M540.2 237.3l-21 18.3 63 9.3"/><path fill="#C3B7AD" d="M751.6 229l-8.6 13 31.3 24.7"/><path fill="#666B55" d="M748 263l-5-21-25.5 29.6"/><path fill="#8C8B72" d="M774.3 266.7L743 242l5 21"/><path fill="#87876E" d="M743 242l-24.7 1.3-.8 28.3"/><path fill="#898B71" d="M717.5 271.6l.8-28.3-13.4 11.4"/><path fill="#637264" d="M624.5 277.3l13.8-27.8-20.2 3"/><path fill="#95927D" d="M718.3 243.3l-24.5-20.5 11 32"/><path fill="#605E42" d="M810.4 328.4l-8.6-42.4-40-2"/><path fill="#C5B8AD" d="M791 252l-39.4-23 22.7 37.7"/><path fill="#A79F89" d="M801.8 286l-11-34-16.5 14.7"/><path fill="#918F6F" d="M762 284l39.8 2-27.5-19.3"/><path fill="#6F725D" d="M680.4 251.5l-20 9.5 57 10.6"/><path fill="#716445" d="M717.5 271.6L660.3 261l5.8 27"/><path fill="#796F4B" d="M666 288l-5.7-27-35.8 16.3"/><path fill="#888F7B" d="M660.3 261l-22-11.5-13.8 27.8"/><path fill="#6B7059" d="M705 254.7l-24.6-3.2 37 20"/><path fill="#797C62" d="M649.6 201.8l30.8 49.7 11-4.8"/><path fill="#8A8D6D" d="M693.8 222.8l-44.2-21 42 45"/><path fill="#768066" d="M705 254.7l-11.2-32-2.3 24"/><path fill="#98997B" d="M691.5 246.7l-11 4.8 24.4 3.2"/><path fill="#93917C" d="M569 299.8l-12.7-22.3-12.5 19"/><path fill="#393D3B" d="M552.3 1073.3l-62-36 9.6 37.3"/><path fill="#2A4043" d="M500 1074.6l-9.6-37.2-22 29.2"/><path fill="#242F37" d="M515 1004.2l-24.6 33.2 62 36"/><path fill="#766536" d="M490.4 1037.4l-32.2 18 10.3 11.2"/><path fill="#E88F59" d="M468.5 1066.6l-10.3-11.2 5 47.3"/><path fill="#886D43" d="M554.8 1009.5L544 997.8l21.2 50.4"/><path fill="#98784D" d="M605.3 1018.7l-61.3-21 10.8 11.8"/><path fill="#EF976B" d="M463.2 1102.7l-5-47.3-19.7 41.8"/><path fill="#33261F" d="M544 997.8l-29 6.4 37.3 69"/><path fill="#846743" d="M557 980l-13 17.8 61.3 21"/><path fill="#633E17" d="M565.2 1048.2L544 997.8l8.3 75.5"/><path fill="#AD9E94" d="M438.5 1097.2l19.7-41.8L443 1073"/><path fill="#E09A75" d="M403 1107l-20 8.6-3 27"/><path fill="#CE8E66" d="M383 1115.6l-40.3 14 37.2 13"/><path fill="#B9824D" d="M422.7 1124.3L403 1107l-6.2 48.7"/><path fill="#526367" d="M380 1142.6l-37.3-13 8.4 19"/><path fill="#C07C4E" d="M396.8 1155.7l6-48.7-23 35.6"/><path fill="#A4A7A8" d="M458.2 1055.4l-39.5 27.6 24.3-10"/><path fill="#AEA49E" d="M438.5 1097.2L403 1107l19.7 17.3"/><path fill="#ACAAA3" d="M443 1073l-24.3 10 19.8 14.2"/><path fill="#C49D8C" d="M418.7 1083l-15.8 24 35.5-9.8"/><path fill="#202212" d="M541.8 894.6l-17 5.5 26 30.3"/><path fill="#D2A68F" d="M461.2 574.8l4.8 78.6 39.2-41.2"/><path fill="#D4AF98" d="M505.2 612.2L466 653.4l27.6 17.5"/><path fill="#CFA88B" d="M466 653.4l4.2 36.6 23.4-19"/><path fill="#C6A384" d="M508.2 712l-38-22 23.7 79.3"/><path fill="#D1AB96" d="M493.6 671l-23.4 19 38 22"/><path fill="#C7AD99" d="M480.3 575.8l-19-1 44 37.4"/><path fill="#7E736C" d="M449 558.2l12.2 16.6 10-39.4"/><path fill="#9D7C55" d="M470.2 690l2 77.3 21.7 2"/><path fill="#D3CAC1" d="M471 535.4l-9.8 39.4 19-16.6"/><path fill="#D1BDB3" d="M480.3 558.2l-19 16.6 19 1"/><path fill="#BCB5AA" d="M461.7 530.3l-12.8 28 22-23"/><path fill="#1B1D12" d="M524.8 900l-8.3 53 34.3-22.7"/><path fill="#3A3728" d="M525.5 860l-.7 40 17-5.4"/><path fill="#2A2A1E" d="M516.5 953l27.5 44.8 13-18"/><path fill="#BBAB94" d="M1144 1175.4l30.5 15.2 1.2-22.5"/><path fill="#191913" d="M550.8 930.3L516.5 953l40.4 27"/><path fill="#6E552E" d="M494 769.3l11 47.6 30 3.6"/><path fill="#433F2F" d="M550.3 878.4L525.5 860l16.3 34.6"/><path fill="#45381E" d="M505 817l20.5 43 9.5-39.4"/><path fill="#484E31" d="M535 820.6l-9.5 39.3 24.8 18.4"/><path fill="#72613E" d="M472.3 767.3L505 817l-11-47.7"/><path fill="#B29383" d="M1049 987.7l-26-14-10 18"/><path fill="#A2A6AE" d="M1033.5 968.8l-10.4 4.8 26 14"/><path fill="#818680" d="M1092.2 974.7l-22.2 11.8 18.7 3"/><path fill="#DD9A76" d="M1013 991.7L990 946l-8 31.3"/><path fill="#E7B9AB" d="M1023 973.6L990.3 946l22.7 45.7"/><path fill="#C6A190" d="M1047 1007.7l23-21.2-21 1.2"/><path fill="#BD8E64" d="M1088.7 989.5l-18.7-3 29 37.4"/><path fill="#D6A588" d="M1099 1024l-29-37.5-10.2 48.8"/><path fill="#CDA59A" d="M1059.8 1035.3l10.2-48.8-23 21.2"/><path fill="#ABA699" d="M982.2 977.3l8-31.2-34.6-2.3"/><path fill="#B6AAAE" d="M1070 986.5l-36.5-17.7 15.6 19"/><path fill="#474834" d="M895.7 923l18.7-31.7-25-13.6"/><path fill="#86755E" d="M918 919.2l-3.6-28-18.7 31.8"/><path fill="#726D63" d="M889.3 877.7l25 13.6-15.8-23"/><path fill="#3B3729" d="M915 859.7l-22.5-45 6 53.6"/><path fill="#3B3A28" d="M914.4 891.3l.5-31.6-16.5 8.6"/><path fill="#A89473" d="M943.4 895.8l-29-4.5 3.5 28"/><path fill="#524633" d="M898.5 868.3l-6-53.7L878 840"/><path fill="#836754" d="M990.2 946l-31-18-3.6 15.7"/><path fill="#CD9F7B" d="M959.3 928l-16-32.2-10 53"/><path fill="#D6B2A3" d="M933.2 948.8l10.2-53-25.5 23.4"/><path fill="#586045" d="M836.5 302l-34.7-16 17 26"/><path fill="#CAA18A" d="M1218 1126l.5.4 17.4-15.5-31.5-18.6"/><path fill="#928569" d="M1237.7 1140.4h.2l-2-29.5-17.5 15.4"/><path fill="#CDB8A5" d="M1175.7 1168l-1.2 22.6 42.8-17.6"/><path fill="#E1AF93" d="M1099 1024l-6.8-49.3-3.5 14.8"/><path fill="#A79A88" d="M1167 1059.4l41.8-6.3-41.3-17.7"/><path fill="#CDB8AF" d="M1167 1059.4l-25-38.2-43 2.7"/><path fill="#D6A682" d="M1167.5 1035.3l-25.4-14 25 38"/><path fill="#CAC4BE" d="M1142 1021.2l-49.8-46.5 7 49.2"/><path fill="#DA9E81" d="M1237.6 1070.8l-34.2-5.3 21.8 19.5"/><path fill="#587886" d="M1203.4 1065.5l5.4-12.4-41.8 6.4"/><path fill="#EBB599" d="M1225.2 1085l-21.8-19.5 1 27"/><path fill="#D5977A" d="M1236 1111l-10.8-26-20.7 7.4"/><path fill="#ABA093" d="M1237.6 1070.8l-28.8-17.7-5.4 12.5"/><path fill="#32251D" d="M955.6 943.7l3.7-15.7-26 20.8"/><path fill="#CDAB9B" d="M874.7 466l8.8 60.2 26.6-8.7-35-52.2"/><path fill="#B59F8B" d="M875 465.3l27.6-.3-17-45.5"/><path fill="#C1A999" d="M910 517.5l-7.4-52.5-27.6.3"/><path fill="#8E8874" d="M919.5 461.5L921 440l-35.4-20.5"/><path fill="#9A866C" d="M902.6 465l17-3.5-34-42"/><path fill="#8B896D" d="M885.6 419.5L921 440l-29-42"/><path fill="#79725A" d="M883.5 526.2l37.4 36.2-4.7-20"/><path fill="#846E55" d="M921 562.4l18-12.6-22.7-7.5"/><path fill="#A68E7B" d="M916.3 542.3l-6.2-24.8-26.5 8.7"/><path fill="#8F7F5E" d="M939 549.8l-29-32.3 6.3 24.8"/><path fill="#514631" d="M810.4 328.4l33 16-24.7-32.3"/><path fill="#747561" d="M921 440l-.7-22-28.4-20"/><path fill="#776D51" d="M851.5 367l-8-22.5-33-16"/><path fill="#454635" d="M851.5 320.5l-15-18.6-17.8 10"/><path fill="#8B7E5F" d="M870.7 371.2l-27.2-26.7 8 22.6"/><path fill="#525540" d="M843.5 344.5l8-24-32.8-8.4"/><path fill="#BCAC9C" d="M916 596l5-33.6-37.5-36.2"/><path fill="#8E8667" d="M867.3 414.6l3.4-43.4-19.2-4"/><path fill="#96937D" d="M920.3 418l-20-41.3L892 398"/><path fill="#4D412A" d="M878 840l14.5-25.4L857 806"/><path fill="#818163" d="M892 398L870.6 371l15 48.3"/><path fill="#A8A68C" d="M900.4 376.7l-29.7-5.5L892 398"/><path fill="#AF7C5E" d="M899 765.2l21-71.7L893 727"/><path fill="#C7B5AA" d="M916.2 619l4.7-56.6-5 33.6"/><path fill="#D1AB9B" d="M929.4 640.3l-15.2 21.2 18.4-7.2"/><path fill="#BF9782" d="M920 693.5l17.6-16.6-23.4-15.5"/><path fill="#AB8362" d="M893.2 727l26.7-33.5-5.8-32"/><path fill="#6E5B3C" d="M923.8 777.4l3.4-44-28 31.8"/><path fill="#685232" d="M857 806l35.5 8.6-37.2-30.6"/><path fill="#6C4F2F" d="M855.3 784l37.2 30.6 6.6-49.4"/><path fill="#584930" d="M920.5 800.8l3.3-23.4-24.7-12.2"/><path fill="#574834" d="M892.5 814.6l28-13.8-21.4-35.6"/><path fill="#816C48" d="M927.2 733.5l-7.3-40-21 71.7"/><path fill="#E5C5BF" d="M889.2 688.8l27-70L809 644"/><path fill="#E4BCB0" d="M808.6 539.8l107.6 79-32.7-92.6"/><path fill="#E7C7BC" d="M809 644l107.2-25-107.6-79.2"/><path fill="#CFB4A5" d="M883.5 526.2l32.7 92.7-.3-23"/><path fill="#D76241" d="M937.6 677l7-27.4-12 4.7"/><path fill="#D88F6E" d="M932.6 654.3l12-4.7-15.2-9.3"/><path fill="#DBAA9A" d="M914.2 661.5l23.4 15.4-5-22.7"/><path fill="#C99E86" d="M929.4 640.3l15.2 9.3-28.4-30.7-2 42.5"/><path fill="#BC9377" d="M914.2 661.5l2-42.6-27 69.8"/></svg>