<?xml version="1.0" encoding="UTF-8" standalone="no"?>
<svg width="16px" height="50px" viewBox="0 0 16 50" version="1.1" xmlns="http://www.w3.org/2000/svg" xmlns:xlink="http://www.w3.org/1999/xlink">
    <!-- Generator: Sketch 3.6.1 (26313) - http://www.bohemiancoding.com/sketch -->
    <title>Combined Shape</title>
    <desc>Created with Sketch.</desc>
    <defs></defs>
    <g id="Page-1" stroke="none" stroke-width="1" fill="none" fill-rule="evenodd">
        <path d="M0,0.00827972646 L2.44249065e-15,49.8261217 L7.92387556,42.9548597 L15.8701301,49.9011143 L15.8701301,35.2475968 C15.8701301,26.4983979 15.8701301,0 15.8701301,0 L0,0.00827972646 Z M5.50922844,27.6244688 C4.99636914,29.311912 4.01149773,30.4211405 2.87322239,30.5963296 L2.24145234,30.6680391 C2.09077156,31.5031375 2,32.3591132 2,33.2377819 C2,33.8250739 2.04538578,34.4014733 2.11437216,34.970611 L3.00393343,34.9424718 C6.06293495,34.8535157 8.17428139,33.0226533 9.45506808,29.3545747 C9.58577912,28.9987502 10.591528,24.3339998 13.1258699,23.8892191 L13.7585477,23.8156942 C13.9092284,22.9805959 14,22.1246201 14,21.2468591 C14,20.6595671 13.9537065,20.08226 13.8856278,19.5131223 L12.9951589,19.5412615 C12.9951589,19.5412615 10.5797277,19.5221995 8.8677761,21.2078273 C7.04508321,23.0005656 6.32163389,24.9930013 5.50922844,27.6244688 Z" id="Combined-Shape" fill="#668A00"></path>
    </g>
</svg>